<mxfile host="app.diagrams.net" agent="Mozilla/5.0 (Windows NT 10.0; Win64; x64) AppleWebKit/537.36 (KHTML, like Gecko) Chrome/131.0.0.0 Safari/537.36" version="26.0.4">
  <diagram id="cDm67QHPemsHG67ao9OR" name="Page-1">
    <mxGraphModel dx="3457" dy="3542" grid="1" gridSize="10" guides="1" tooltips="1" connect="1" arrows="1" fold="1" page="1" pageScale="1" pageWidth="850" pageHeight="1100" math="0" shadow="0">
      <root>
        <mxCell id="0" />
        <mxCell id="1" parent="0" />
        <mxCell id="4Jlic4GooHUhA-Gu6yfs-2" value="IdentityConfDb" style="shape=datastore;whiteSpace=wrap;html=1;spacingTop=3;" parent="1" vertex="1">
          <mxGeometry x="922" y="-1100" width="90" height="90" as="geometry" />
        </mxCell>
        <mxCell id="OX6Z1GExO-TKb89o3v1y-128" style="edgeStyle=orthogonalEdgeStyle;rounded=0;orthogonalLoop=1;jettySize=auto;html=1;exitX=0.5;exitY=1;exitDx=0;exitDy=0;entryX=0.5;entryY=0;entryDx=0;entryDy=0;" edge="1" parent="1" source="4Jlic4GooHUhA-Gu6yfs-3" target="OX6Z1GExO-TKb89o3v1y-60">
          <mxGeometry relative="1" as="geometry" />
        </mxCell>
        <mxCell id="4Jlic4GooHUhA-Gu6yfs-3" value="Cc5Api" style="shape=datastore;whiteSpace=wrap;html=1;spacingTop=3;" parent="1" vertex="1">
          <mxGeometry x="1042" y="-1100" width="90" height="90" as="geometry" />
        </mxCell>
        <mxCell id="4Jlic4GooHUhA-Gu6yfs-5" value="&lt;span style=&quot;font-size: 11.0pt ; font-family: &amp;#34;calibri&amp;#34; , sans-serif&quot;&gt;Cc_Central&lt;/span&gt;" style="shape=datastore;whiteSpace=wrap;html=1;spacingTop=3;" parent="1" vertex="1">
          <mxGeometry x="335" y="-1100" width="90" height="90" as="geometry" />
        </mxCell>
        <mxCell id="4Jlic4GooHUhA-Gu6yfs-43" value="HOSTS" style="edgeStyle=orthogonalEdgeStyle;orthogonalLoop=1;jettySize=auto;html=1;fontFamily=Times New Roman;rounded=1;fillColor=#dae8fc;strokeColor=#6c8ebf;spacingTop=3;" parent="1" source="4Jlic4GooHUhA-Gu6yfs-10" target="4Jlic4GooHUhA-Gu6yfs-2" edge="1">
          <mxGeometry relative="1" as="geometry" />
        </mxCell>
        <mxCell id="4Jlic4GooHUhA-Gu6yfs-128" style="edgeStyle=orthogonalEdgeStyle;rounded=1;orthogonalLoop=1;jettySize=auto;html=1;entryX=0;entryY=0.5;entryDx=0;entryDy=0;startArrow=classic;startFill=1;endArrow=none;endFill=0;fontFamily=Times New Roman;fillColor=#dae8fc;strokeColor=#6c8ebf;exitX=0.5;exitY=0;exitDx=0;exitDy=0;" parent="1" source="OX6Z1GExO-TKb89o3v1y-2" target="4Jlic4GooHUhA-Gu6yfs-11" edge="1">
          <mxGeometry relative="1" as="geometry">
            <mxPoint x="355" y="-960" as="sourcePoint" />
          </mxGeometry>
        </mxCell>
        <mxCell id="4Jlic4GooHUhA-Gu6yfs-139" value="HOSTS" style="edgeLabel;html=1;align=center;verticalAlign=middle;resizable=0;points=[];fontFamily=Times New Roman;" parent="4Jlic4GooHUhA-Gu6yfs-128" vertex="1" connectable="0">
          <mxGeometry x="0.2183" y="-1" relative="1" as="geometry">
            <mxPoint y="1" as="offset" />
          </mxGeometry>
        </mxCell>
        <mxCell id="4Jlic4GooHUhA-Gu6yfs-10" value="&lt;span style=&quot;font-size: 11.0pt ; font-family: &amp;quot;calibri&amp;quot; , sans-serif&quot;&gt;compucash5.com,&lt;br&gt;65421&lt;/span&gt;&lt;div&gt;&lt;span style=&quot;font-family: calibri, sans-serif; font-size: 14.6667px;&quot;&gt;EE host&lt;/span&gt;&lt;br style=&quot;font-family: calibri, sans-serif; font-size: 14.6667px;&quot;&gt;&lt;span style=&quot;font-family: calibri, sans-serif; font-size: 14.6667px;&quot;&gt;TELIA&lt;/span&gt;&lt;span style=&quot;font-size: 11.0pt ; font-family: &amp;quot;calibri&amp;quot; , sans-serif&quot;&gt;&lt;/span&gt;&lt;/div&gt;" style="aspect=fixed;perimeter=ellipsePerimeter;html=1;align=center;shadow=0;dashed=0;spacingTop=3;image;image=img/lib/active_directory/generic_server.svg;fontFamily=Times New Roman;" parent="1" vertex="1">
          <mxGeometry x="872" y="-1390" width="58" height="103.57" as="geometry" />
        </mxCell>
        <mxCell id="OX6Z1GExO-TKb89o3v1y-42" style="edgeStyle=orthogonalEdgeStyle;rounded=0;orthogonalLoop=1;jettySize=auto;html=1;exitX=0.5;exitY=1;exitDx=0;exitDy=0;entryX=0.5;entryY=0;entryDx=0;entryDy=0;" edge="1" parent="1" source="4Jlic4GooHUhA-Gu6yfs-11" target="OX6Z1GExO-TKb89o3v1y-27">
          <mxGeometry relative="1" as="geometry" />
        </mxCell>
        <mxCell id="OX6Z1GExO-TKb89o3v1y-44" value="HOSTS" style="edgeLabel;html=1;align=center;verticalAlign=middle;resizable=0;points=[];" vertex="1" connectable="0" parent="OX6Z1GExO-TKb89o3v1y-42">
          <mxGeometry x="0.3134" y="-3" relative="1" as="geometry">
            <mxPoint as="offset" />
          </mxGeometry>
        </mxCell>
        <mxCell id="OX6Z1GExO-TKb89o3v1y-43" style="edgeStyle=orthogonalEdgeStyle;rounded=0;orthogonalLoop=1;jettySize=auto;html=1;exitX=1;exitY=0.5;exitDx=0;exitDy=0;entryX=0.5;entryY=0;entryDx=0;entryDy=0;" edge="1" parent="1" source="4Jlic4GooHUhA-Gu6yfs-11" target="OX6Z1GExO-TKb89o3v1y-36">
          <mxGeometry relative="1" as="geometry" />
        </mxCell>
        <mxCell id="OX6Z1GExO-TKb89o3v1y-45" value="HOSTS" style="edgeLabel;html=1;align=center;verticalAlign=middle;resizable=0;points=[];" vertex="1" connectable="0" parent="OX6Z1GExO-TKb89o3v1y-43">
          <mxGeometry x="0.3322" y="1" relative="1" as="geometry">
            <mxPoint as="offset" />
          </mxGeometry>
        </mxCell>
        <mxCell id="4Jlic4GooHUhA-Gu6yfs-11" value="&lt;span style=&quot;font-size: 11.0pt ; font-family: &amp;quot;calibri&amp;quot; , sans-serif&quot;&gt;cc.ektaco.ee&lt;br&gt;EE host&lt;br&gt;TELIA&lt;/span&gt;" style="aspect=fixed;perimeter=ellipsePerimeter;html=1;align=center;shadow=0;dashed=0;spacingTop=3;image;image=img/lib/active_directory/generic_server.svg;fontFamily=Times New Roman;" parent="1" vertex="1">
          <mxGeometry x="-389" y="-1390" width="58" height="103.57" as="geometry" />
        </mxCell>
        <mxCell id="OX6Z1GExO-TKb89o3v1y-48" style="edgeStyle=orthogonalEdgeStyle;rounded=0;orthogonalLoop=1;jettySize=auto;html=1;exitX=0.5;exitY=1;exitDx=0;exitDy=0;entryX=0.5;entryY=0;entryDx=0;entryDy=0;" edge="1" parent="1" source="4Jlic4GooHUhA-Gu6yfs-12" target="4Jlic4GooHUhA-Gu6yfs-5">
          <mxGeometry relative="1" as="geometry" />
        </mxCell>
        <mxCell id="OX6Z1GExO-TKb89o3v1y-49" value="HOSTS" style="edgeLabel;html=1;align=center;verticalAlign=middle;resizable=0;points=[];" vertex="1" connectable="0" parent="OX6Z1GExO-TKb89o3v1y-48">
          <mxGeometry x="0.2143" y="-2" relative="1" as="geometry">
            <mxPoint as="offset" />
          </mxGeometry>
        </mxCell>
        <mxCell id="4Jlic4GooHUhA-Gu6yfs-12" value="&lt;span style=&quot;font-size: 11.0pt ; font-family: &amp;quot;calibri&amp;quot; , sans-serif&quot;&gt;ccregistry.ektaco.ee,&lt;br&gt;65432&lt;/span&gt;&lt;div&gt;&lt;span style=&quot;font-family: calibri, sans-serif; font-size: 14.6667px;&quot;&gt;EE host&lt;/span&gt;&lt;br style=&quot;font-family: calibri, sans-serif; font-size: 14.6667px;&quot;&gt;&lt;span style=&quot;font-family: calibri, sans-serif; font-size: 14.6667px;&quot;&gt;TELIA&lt;/span&gt;&lt;span style=&quot;font-size: 11.0pt ; font-family: &amp;quot;calibri&amp;quot; , sans-serif&quot;&gt;&lt;/span&gt;&lt;/div&gt;" style="aspect=fixed;perimeter=ellipsePerimeter;html=1;align=center;shadow=0;dashed=0;spacingTop=3;image;image=img/lib/active_directory/generic_server.svg;fontFamily=Times New Roman;" parent="1" vertex="1">
          <mxGeometry x="351" y="-1390" width="58" height="103.57" as="geometry" />
        </mxCell>
        <mxCell id="4Jlic4GooHUhA-Gu6yfs-66" style="edgeStyle=orthogonalEdgeStyle;rounded=1;orthogonalLoop=1;jettySize=auto;html=1;exitX=1;exitY=1;exitDx=0;exitDy=0;entryX=0;entryY=0;entryDx=0;entryDy=0;startArrow=none;startFill=0;endArrow=classic;endFill=1;fontFamily=Times New Roman;spacingTop=3;" parent="1" source="4Jlic4GooHUhA-Gu6yfs-15" target="4Jlic4GooHUhA-Gu6yfs-23" edge="1">
          <mxGeometry relative="1" as="geometry">
            <Array as="points">
              <mxPoint x="-21" y="1643.22" />
              <mxPoint x="-21" y="2128.2200000000003" />
              <mxPoint x="109" y="2128.2200000000003" />
            </Array>
          </mxGeometry>
        </mxCell>
        <mxCell id="4Jlic4GooHUhA-Gu6yfs-68" value="WORKS ON" style="edgeLabel;html=1;align=center;verticalAlign=middle;resizable=0;points=[];fontFamily=Times New Roman;spacingTop=3;" parent="4Jlic4GooHUhA-Gu6yfs-66" vertex="1" connectable="0">
          <mxGeometry x="0.5901" y="1" relative="1" as="geometry">
            <mxPoint as="offset" />
          </mxGeometry>
        </mxCell>
        <mxCell id="4Jlic4GooHUhA-Gu6yfs-15" value="&lt;span style=&quot;font-size: 11.0pt ; font-family: &amp;#34;calibri&amp;#34; , sans-serif&quot;&gt;&lt;font color=&quot;#000000&quot;&gt;CC5&lt;br/&gt;Office API&lt;/font&gt;&lt;/span&gt;" style="aspect=fixed;perimeter=ellipsePerimeter;html=1;align=center;shadow=0;dashed=0;fontColor=#4277BB;labelBackgroundColor=#ffffff;fontSize=12;spacingTop=3;image;image=img/lib/ibm/management/api_management.svg;" parent="1" vertex="1">
          <mxGeometry x="-181.06" y="1578.22" width="100" height="100" as="geometry" />
        </mxCell>
        <mxCell id="4Jlic4GooHUhA-Gu6yfs-54" value="BLOB STORAGE" style="edgeStyle=orthogonalEdgeStyle;rounded=1;orthogonalLoop=1;jettySize=auto;html=1;exitDx=0;exitDy=0;entryDx=0;entryDy=0;fontFamily=Times New Roman;fillColor=#dae8fc;strokeColor=#6c8ebf;spacingTop=3;" parent="1" source="4Jlic4GooHUhA-Gu6yfs-16" edge="1">
          <mxGeometry relative="1" as="geometry">
            <mxPoint x="1637.999999999999" y="811.7899999999997" as="targetPoint" />
          </mxGeometry>
        </mxCell>
        <mxCell id="4Jlic4GooHUhA-Gu6yfs-55" value="CALLS" style="edgeStyle=orthogonalEdgeStyle;orthogonalLoop=1;jettySize=auto;html=1;exitX=1;exitY=0.75;exitDx=0;exitDy=0;fontFamily=Times New Roman;startArrow=classic;startFill=1;rounded=1;fillColor=#d5e8d4;strokeColor=#82b366;spacingTop=3;entryX=0;entryY=0.5;entryDx=0;entryDy=0;" parent="1" source="4Jlic4GooHUhA-Gu6yfs-16" target="4Jlic4GooHUhA-Gu6yfs-33" edge="1">
          <mxGeometry relative="1" as="geometry">
            <mxPoint x="622" y="1828.22" as="targetPoint" />
            <Array as="points">
              <mxPoint x="-51" y="1800.22" />
              <mxPoint x="-51" y="1948.22" />
            </Array>
          </mxGeometry>
        </mxCell>
        <mxCell id="4Jlic4GooHUhA-Gu6yfs-70" style="edgeStyle=orthogonalEdgeStyle;rounded=1;orthogonalLoop=1;jettySize=auto;html=1;exitX=0.75;exitY=1;exitDx=0;exitDy=0;entryX=0.25;entryY=0;entryDx=0;entryDy=0;startArrow=none;startFill=0;endArrow=classic;endFill=1;fontFamily=Times New Roman;spacingTop=3;" parent="1" source="4Jlic4GooHUhA-Gu6yfs-16" target="4Jlic4GooHUhA-Gu6yfs-23" edge="1">
          <mxGeometry relative="1" as="geometry">
            <Array as="points">
              <mxPoint x="129" y="1823.22" />
            </Array>
          </mxGeometry>
        </mxCell>
        <mxCell id="4Jlic4GooHUhA-Gu6yfs-73" value="GET DELIVERECT &lt;br&gt;EXPORT PRODUCTS" style="edgeLabel;html=1;align=center;verticalAlign=middle;resizable=0;points=[];fontFamily=Times New Roman;spacingTop=3;" parent="4Jlic4GooHUhA-Gu6yfs-70" vertex="1" connectable="0">
          <mxGeometry x="-0.0774" y="-3" relative="1" as="geometry">
            <mxPoint as="offset" />
          </mxGeometry>
        </mxCell>
        <mxCell id="4Jlic4GooHUhA-Gu6yfs-79" style="edgeStyle=orthogonalEdgeStyle;rounded=1;orthogonalLoop=1;jettySize=auto;html=1;exitX=0;exitY=0.75;exitDx=0;exitDy=0;startArrow=none;startFill=0;endArrow=classic;endFill=1;fontFamily=Times New Roman;entryX=0.75;entryY=0;entryDx=0;entryDy=0;spacingTop=3;" parent="1" source="4Jlic4GooHUhA-Gu6yfs-17" target="4Jlic4GooHUhA-Gu6yfs-25" edge="1">
          <mxGeometry relative="1" as="geometry" />
        </mxCell>
        <mxCell id="4Jlic4GooHUhA-Gu6yfs-80" value="WORKS ON" style="edgeLabel;html=1;align=center;verticalAlign=middle;resizable=0;points=[];fontFamily=Times New Roman;spacingTop=3;" parent="4Jlic4GooHUhA-Gu6yfs-79" vertex="1" connectable="0">
          <mxGeometry x="-0.2028" relative="1" as="geometry">
            <mxPoint as="offset" />
          </mxGeometry>
        </mxCell>
        <mxCell id="4Jlic4GooHUhA-Gu6yfs-17" value="&lt;span style=&quot;font-size: 11.0pt ; font-family: &amp;#34;calibri&amp;#34; , sans-serif&quot;&gt;&lt;font color=&quot;#000000&quot;&gt;CC&lt;br/&gt;Admin API&lt;/font&gt;&lt;/span&gt;" style="aspect=fixed;perimeter=ellipsePerimeter;html=1;align=center;shadow=0;dashed=0;fontColor=#4277BB;labelBackgroundColor=#ffffff;fontSize=12;spacingTop=3;image;image=img/lib/ibm/management/api_management.svg;" parent="1" vertex="1">
          <mxGeometry x="739" y="1728.22" width="100" height="100" as="geometry" />
        </mxCell>
        <mxCell id="4Jlic4GooHUhA-Gu6yfs-89" style="edgeStyle=orthogonalEdgeStyle;rounded=1;orthogonalLoop=1;jettySize=auto;html=1;startArrow=none;startFill=0;endArrow=classic;endFill=1;fontFamily=Times New Roman;spacingTop=3;" parent="1" edge="1">
          <mxGeometry relative="1" as="geometry">
            <mxPoint x="834" y="1458.22" as="sourcePoint" />
            <mxPoint x="519" y="2178.2200000000003" as="targetPoint" />
            <Array as="points">
              <mxPoint x="969" y="1458.22" />
              <mxPoint x="969" y="2178.2200000000003" />
            </Array>
          </mxGeometry>
        </mxCell>
        <mxCell id="4Jlic4GooHUhA-Gu6yfs-90" value="USES" style="edgeLabel;html=1;align=center;verticalAlign=middle;resizable=0;points=[];fontFamily=Times New Roman;spacingTop=3;" parent="4Jlic4GooHUhA-Gu6yfs-89" vertex="1" connectable="0">
          <mxGeometry x="-0.3837" relative="1" as="geometry">
            <mxPoint as="offset" />
          </mxGeometry>
        </mxCell>
        <mxCell id="4Jlic4GooHUhA-Gu6yfs-18" value="&lt;span style=&quot;font-size: 11.0pt ; font-family: &amp;#34;calibri&amp;#34; , sans-serif&quot;&gt;&lt;font color=&quot;#000000&quot;&gt;CC&lt;br/&gt;Inventory API&lt;/font&gt;&lt;/span&gt;" style="aspect=fixed;perimeter=ellipsePerimeter;html=1;align=center;shadow=0;dashed=0;fontColor=#4277BB;labelBackgroundColor=#ffffff;fontSize=12;spacingTop=3;image;image=img/lib/ibm/management/api_management.svg;container=0;" parent="1" vertex="1">
          <mxGeometry x="739" y="1388.22" width="100" height="100" as="geometry" />
        </mxCell>
        <mxCell id="4Jlic4GooHUhA-Gu6yfs-81" style="edgeStyle=orthogonalEdgeStyle;rounded=1;orthogonalLoop=1;jettySize=auto;html=1;exitX=1;exitY=1;exitDx=0;exitDy=0;startArrow=none;startFill=0;endArrow=classic;endFill=1;fontFamily=Times New Roman;spacingTop=3;" parent="1" source="4Jlic4GooHUhA-Gu6yfs-19" target="4Jlic4GooHUhA-Gu6yfs-25" edge="1">
          <mxGeometry relative="1" as="geometry">
            <Array as="points">
              <mxPoint x="899" y="1643.22" />
              <mxPoint x="899" y="2258.2200000000003" />
              <mxPoint x="364" y="2258.2200000000003" />
            </Array>
          </mxGeometry>
        </mxCell>
        <mxCell id="4Jlic4GooHUhA-Gu6yfs-82" value="UPDATES" style="edgeLabel;html=1;align=center;verticalAlign=middle;resizable=0;points=[];fontFamily=Times New Roman;spacingTop=3;" parent="4Jlic4GooHUhA-Gu6yfs-81" vertex="1" connectable="0">
          <mxGeometry x="-0.3847" y="1" relative="1" as="geometry">
            <mxPoint x="-95.30000000000001" y="128.94" as="offset" />
          </mxGeometry>
        </mxCell>
        <mxCell id="4Jlic4GooHUhA-Gu6yfs-137" value="UPDATES" style="edgeLabel;html=1;align=center;verticalAlign=middle;resizable=0;points=[];fontFamily=Times New Roman;" parent="4Jlic4GooHUhA-Gu6yfs-81" vertex="1" connectable="0">
          <mxGeometry x="0.477" y="3" relative="1" as="geometry">
            <mxPoint x="1" as="offset" />
          </mxGeometry>
        </mxCell>
        <mxCell id="4Jlic4GooHUhA-Gu6yfs-19" value="&lt;span style=&quot;font-size: 11.0pt ; font-family: &amp;#34;calibri&amp;#34; , sans-serif&quot;&gt;&lt;font color=&quot;#000000&quot;&gt;DB update&amp;nbsp;API&lt;/font&gt;&lt;/span&gt;" style="aspect=fixed;perimeter=ellipsePerimeter;html=1;align=center;shadow=0;dashed=0;fontColor=#4277BB;labelBackgroundColor=#ffffff;fontSize=12;spacingTop=3;image;image=img/lib/ibm/management/api_management.svg;" parent="1" vertex="1">
          <mxGeometry x="739" y="1558.22" width="100" height="100" as="geometry" />
        </mxCell>
        <mxCell id="4Jlic4GooHUhA-Gu6yfs-20" value="&lt;span style=&quot;font-size: 11.0pt ; font-family: &amp;#34;calibri&amp;#34; , sans-serif&quot;&gt;&lt;font color=&quot;#000000&quot;&gt;Identity&lt;br/&gt;manager&lt;/font&gt;&lt;/span&gt;" style="aspect=fixed;perimeter=ellipsePerimeter;html=1;align=center;shadow=0;dashed=0;fontColor=#4277BB;labelBackgroundColor=#ffffff;fontSize=12;spacingTop=3;image;image=img/lib/ibm/management/api_management.svg;" parent="1" vertex="1">
          <mxGeometry x="-181.06" y="1408.22" width="100" height="100" as="geometry" />
        </mxCell>
        <mxCell id="4Jlic4GooHUhA-Gu6yfs-23" value="&lt;span style=&quot;font-size: 11.0pt ; font-family: &amp;#34;calibri&amp;#34; , sans-serif&quot;&gt;CC5&lt;br/&gt;Office&lt;/span&gt;" style="shape=ext;double=1;rounded=1;whiteSpace=wrap;html=1;fontFamily=Times New Roman;spacingTop=3;" parent="1" vertex="1">
          <mxGeometry x="109" y="2168.2200000000003" width="80" height="50" as="geometry" />
        </mxCell>
        <mxCell id="4Jlic4GooHUhA-Gu6yfs-24" value="&lt;span style=&quot;font-size: 11.0pt ; font-family: &amp;#34;calibri&amp;#34; , sans-serif&quot;&gt;CC5&lt;br/&gt;POS&lt;/span&gt;" style="shape=ext;double=1;rounded=1;whiteSpace=wrap;html=1;fontFamily=Times New Roman;spacingTop=3;" parent="1" vertex="1">
          <mxGeometry x="219" y="2168.2200000000003" width="76" height="50" as="geometry" />
        </mxCell>
        <mxCell id="4Jlic4GooHUhA-Gu6yfs-86" style="edgeStyle=orthogonalEdgeStyle;rounded=1;orthogonalLoop=1;jettySize=auto;html=1;exitX=0.25;exitY=1;exitDx=0;exitDy=0;entryX=0;entryY=0.75;entryDx=0;entryDy=0;startArrow=none;startFill=0;endArrow=classic;endFill=1;fontFamily=Times New Roman;spacingTop=3;" parent="1" source="4Jlic4GooHUhA-Gu6yfs-25" target="4Jlic4GooHUhA-Gu6yfs-36" edge="1">
          <mxGeometry relative="1" as="geometry">
            <Array as="points">
              <mxPoint x="347" y="2318.2200000000003" />
              <mxPoint x="-251" y="2318.2200000000003" />
              <mxPoint x="-251" y="1970.22" />
            </Array>
          </mxGeometry>
        </mxCell>
        <mxCell id="4Jlic4GooHUhA-Gu6yfs-87" value="GET POS LOG" style="edgeLabel;html=1;align=center;verticalAlign=middle;resizable=0;points=[];fontFamily=Times New Roman;spacingTop=3;" parent="4Jlic4GooHUhA-Gu6yfs-86" vertex="1" connectable="0">
          <mxGeometry x="-0.0172" relative="1" as="geometry">
            <mxPoint x="-21.86" as="offset" />
          </mxGeometry>
        </mxCell>
        <mxCell id="4Jlic4GooHUhA-Gu6yfs-25" value="&lt;span style=&quot;font-size: 11.0pt ; font-family: &amp;#34;calibri&amp;#34; , sans-serif&quot;&gt;CC&lt;br/&gt;Admin&lt;/span&gt;" style="shape=ext;double=1;rounded=1;whiteSpace=wrap;html=1;fontFamily=Times New Roman;spacingTop=3;" parent="1" vertex="1">
          <mxGeometry x="329" y="2168.2200000000003" width="70" height="50" as="geometry" />
        </mxCell>
        <mxCell id="4Jlic4GooHUhA-Gu6yfs-91" style="edgeStyle=orthogonalEdgeStyle;rounded=1;orthogonalLoop=1;jettySize=auto;html=1;exitDx=0;exitDy=0;startArrow=classic;startFill=1;endArrow=none;endFill=0;fontFamily=Times New Roman;entryDx=0;entryDy=0;fillColor=#dae8fc;strokeColor=#6c8ebf;spacingTop=3;" parent="1" source="4Jlic4GooHUhA-Gu6yfs-26" edge="1">
          <mxGeometry relative="1" as="geometry">
            <mxPoint x="1637.999999999999" y="811.7899999999997" as="targetPoint" />
          </mxGeometry>
        </mxCell>
        <mxCell id="4Jlic4GooHUhA-Gu6yfs-92" value="HOSTS" style="edgeLabel;html=1;align=center;verticalAlign=middle;resizable=0;points=[];fontFamily=Times New Roman;spacingTop=3;" parent="4Jlic4GooHUhA-Gu6yfs-91" vertex="1" connectable="0">
          <mxGeometry x="0.4108" y="-1" relative="1" as="geometry">
            <mxPoint as="offset" />
          </mxGeometry>
        </mxCell>
        <mxCell id="4Jlic4GooHUhA-Gu6yfs-26" value="&lt;span style=&quot;font-size: 11.0pt ; font-family: &amp;#34;calibri&amp;#34; , sans-serif&quot;&gt;CC&lt;br/&gt;Inventory&lt;/span&gt;" style="shape=ext;double=1;rounded=1;whiteSpace=wrap;html=1;fontFamily=Times New Roman;spacingTop=3;" parent="1" vertex="1">
          <mxGeometry x="429" y="2168.2200000000003" width="90" height="50" as="geometry" />
        </mxCell>
        <mxCell id="4Jlic4GooHUhA-Gu6yfs-29" value="Kibana&lt;br&gt;&lt;span style=&quot;font-size: 11pt ; font-family: &amp;#34;calibri&amp;#34; , sans-serif&quot;&gt;&lt;a href=&quot;https://logs.ektaco.ee/&quot;&gt;&lt;font color=&quot;#0000ff&quot;&gt;logs.ektaco.ee/&lt;/font&gt;&lt;/a&gt;&lt;/span&gt;" style="ellipse;shape=doubleEllipse;whiteSpace=wrap;html=1;fontFamily=Times New Roman;spacingTop=3;" parent="1" vertex="1">
          <mxGeometry x="-160" y="-1900" width="120" height="30" as="geometry" />
        </mxCell>
        <mxCell id="4Jlic4GooHUhA-Gu6yfs-30" value="&lt;span style=&quot;font-size: 11.0pt ; font-family: &amp;#34;calibri&amp;#34; , sans-serif&quot;&gt;Sentry&lt;/span&gt;" style="ellipse;shape=doubleEllipse;whiteSpace=wrap;html=1;fontFamily=Times New Roman;spacingTop=3;" parent="1" vertex="1">
          <mxGeometry x="-260" y="-1730" width="86" height="50" as="geometry" />
        </mxCell>
        <mxCell id="4Jlic4GooHUhA-Gu6yfs-32" value="SWAGGER" style="whiteSpace=wrap;html=1;shape=mxgraph.basic.octagon2;align=center;verticalAlign=middle;dx=15;fontFamily=Times New Roman;spacingTop=3;" parent="1" vertex="1">
          <mxGeometry x="264" y="1428.22" width="100" height="40" as="geometry" />
        </mxCell>
        <mxCell id="4Jlic4GooHUhA-Gu6yfs-69" value="DELIVERECT PRODUCTS EXPORT" style="edgeStyle=orthogonalEdgeStyle;rounded=1;orthogonalLoop=1;jettySize=auto;html=1;exitX=0.25;exitY=1;exitDx=0;exitDy=0;entryX=0.75;entryY=0;entryDx=0;entryDy=0;startArrow=classic;startFill=1;endArrow=none;endFill=0;fontFamily=Times New Roman;spacingTop=3;" parent="1" source="4Jlic4GooHUhA-Gu6yfs-33" target="4Jlic4GooHUhA-Gu6yfs-23" edge="1">
          <mxGeometry x="-0.3196" relative="1" as="geometry">
            <Array as="points">
              <mxPoint x="767" y="2108.2200000000003" />
              <mxPoint x="169" y="2108.2200000000003" />
            </Array>
            <mxPoint x="-1" as="offset" />
          </mxGeometry>
        </mxCell>
        <mxCell id="4Jlic4GooHUhA-Gu6yfs-83" style="edgeStyle=orthogonalEdgeStyle;rounded=1;orthogonalLoop=1;jettySize=auto;html=1;exitX=0;exitY=0.75;exitDx=0;exitDy=0;entryX=1;entryY=0;entryDx=0;entryDy=0;startArrow=none;startFill=0;endArrow=classic;endFill=1;fontFamily=Times New Roman;spacingTop=3;" parent="1" source="4Jlic4GooHUhA-Gu6yfs-33" target="4Jlic4GooHUhA-Gu6yfs-25" edge="1">
          <mxGeometry relative="1" as="geometry" />
        </mxCell>
        <mxCell id="4Jlic4GooHUhA-Gu6yfs-84" value="USES" style="edgeLabel;html=1;align=center;verticalAlign=middle;resizable=0;points=[];fontFamily=Times New Roman;spacingTop=3;" parent="4Jlic4GooHUhA-Gu6yfs-83" vertex="1" connectable="0">
          <mxGeometry x="-0.0404" y="-1" relative="1" as="geometry">
            <mxPoint as="offset" />
          </mxGeometry>
        </mxCell>
        <mxCell id="4Jlic4GooHUhA-Gu6yfs-61" value="HOSTS" style="edgeStyle=orthogonalEdgeStyle;rounded=1;orthogonalLoop=1;jettySize=auto;html=1;exitDx=0;exitDy=0;entryDx=0;entryDy=0;fontFamily=Times New Roman;fillColor=#dae8fc;strokeColor=#6c8ebf;spacingTop=3;" parent="1" target="4Jlic4GooHUhA-Gu6yfs-18" edge="1">
          <mxGeometry relative="1" as="geometry">
            <mxPoint x="1609.0000002820343" y="759.9977777777774" as="sourcePoint" />
          </mxGeometry>
        </mxCell>
        <mxCell id="4Jlic4GooHUhA-Gu6yfs-75" style="edgeStyle=orthogonalEdgeStyle;rounded=1;orthogonalLoop=1;jettySize=auto;html=1;startArrow=none;startFill=0;endArrow=classic;endFill=1;fontFamily=Times New Roman;entryX=0;entryY=0.5;entryDx=0;entryDy=0;fillColor=#dae8fc;strokeColor=#6c8ebf;spacingTop=3;exitX=0;exitY=0.25;exitDx=0;exitDy=0;" parent="1" source="OX6Z1GExO-TKb89o3v1y-52" target="4Jlic4GooHUhA-Gu6yfs-23" edge="1">
          <mxGeometry relative="1" as="geometry">
            <mxPoint x="-160" y="582.0000348772321" as="targetPoint" />
            <mxPoint x="-450" y="-510" as="sourcePoint" />
            <Array as="points">
              <mxPoint x="-450" y="765" />
            </Array>
          </mxGeometry>
        </mxCell>
        <mxCell id="4Jlic4GooHUhA-Gu6yfs-76" value="DISPLAY&lt;br&gt;BLOB STORAGE&lt;br&gt;IMAGES" style="edgeLabel;html=1;align=center;verticalAlign=middle;resizable=0;points=[];fontFamily=Times New Roman;spacingTop=3;" parent="4Jlic4GooHUhA-Gu6yfs-75" vertex="1" connectable="0">
          <mxGeometry x="0.3198" y="1" relative="1" as="geometry">
            <mxPoint as="offset" />
          </mxGeometry>
        </mxCell>
        <mxCell id="4Jlic4GooHUhA-Gu6yfs-34" value="&lt;font face=&quot;calibri, sans-serif&quot;&gt;&lt;span style=&quot;font-size: 14.6667px&quot;&gt;German Azure&lt;/span&gt;&lt;/font&gt;" style="aspect=fixed;perimeter=ellipsePerimeter;html=1;align=center;shadow=0;dashed=0;spacingTop=3;image;image=img/lib/active_directory/generic_server.svg;fontFamily=Times New Roman;" parent="1" vertex="1">
          <mxGeometry x="1740" y="-1350" width="58" height="103.57" as="geometry" />
        </mxCell>
        <mxCell id="4Jlic4GooHUhA-Gu6yfs-77" style="edgeStyle=orthogonalEdgeStyle;rounded=1;orthogonalLoop=1;jettySize=auto;html=1;exitX=0.75;exitY=1;exitDx=0;exitDy=0;startArrow=none;startFill=0;endArrow=classic;endFill=1;fontFamily=Times New Roman;spacingTop=3;entryX=0.5;entryY=1;entryDx=0;entryDy=0;" parent="1" source="4Jlic4GooHUhA-Gu6yfs-36" target="4Jlic4GooHUhA-Gu6yfs-24" edge="1">
          <mxGeometry relative="1" as="geometry">
            <mxPoint x="-110.92864045000411" y="1958.2206797749982" as="sourcePoint" />
            <mxPoint x="257" y="2248.2200000000003" as="targetPoint" />
            <Array as="points">
              <mxPoint x="-71" y="1993.22" />
              <mxPoint x="-71" y="2288.2200000000003" />
              <mxPoint x="257" y="2288.2200000000003" />
            </Array>
          </mxGeometry>
        </mxCell>
        <mxCell id="4Jlic4GooHUhA-Gu6yfs-78" value="WORKS ON" style="edgeLabel;html=1;align=center;verticalAlign=middle;resizable=0;points=[];fontFamily=Times New Roman;spacingTop=3;" parent="4Jlic4GooHUhA-Gu6yfs-77" vertex="1" connectable="0">
          <mxGeometry x="0.5253" y="-3" relative="1" as="geometry">
            <mxPoint x="-116.85" y="-3" as="offset" />
          </mxGeometry>
        </mxCell>
        <mxCell id="4Jlic4GooHUhA-Gu6yfs-36" value="&lt;span style=&quot;font-size: 11.0pt ; font-family: &amp;#34;calibri&amp;#34; , sans-serif&quot;&gt;&lt;font color=&quot;#000000&quot;&gt;CC5&lt;br&gt;POS API&lt;/font&gt;&lt;/span&gt;" style="aspect=fixed;perimeter=ellipsePerimeter;html=1;align=center;shadow=0;dashed=0;fontColor=#4277BB;labelBackgroundColor=#ffffff;fontSize=12;spacingTop=3;image;image=img/lib/ibm/management/api_management.svg;" parent="1" vertex="1">
          <mxGeometry x="-181.06" y="1918.22" width="100" height="100" as="geometry" />
        </mxCell>
        <mxCell id="4Jlic4GooHUhA-Gu6yfs-46" value="HOSTS" style="endArrow=none;startArrow=classic;html=1;fontFamily=Times New Roman;exitX=0.5;exitY=0;exitDx=0;exitDy=0;rounded=1;endFill=0;fillColor=#dae8fc;strokeColor=#6c8ebf;spacingTop=3;" parent="1" source="4Jlic4GooHUhA-Gu6yfs-1" target="4Jlic4GooHUhA-Gu6yfs-10" edge="1">
          <mxGeometry width="50" height="50" relative="1" as="geometry">
            <mxPoint x="542" y="10" as="sourcePoint" />
            <mxPoint x="882" y="-1340" as="targetPoint" />
            <Array as="points">
              <mxPoint x="837" y="-1338" />
            </Array>
          </mxGeometry>
        </mxCell>
        <mxCell id="4Jlic4GooHUhA-Gu6yfs-48" value="CALLS" style="endArrow=classic;startArrow=classic;html=1;fontFamily=Times New Roman;exitX=0;exitY=0.5;exitDx=0;exitDy=0;entryX=0;entryY=0.75;entryDx=0;entryDy=0;fillColor=#d5e8d4;strokeColor=#82b366;spacingTop=3;" parent="1" source="4Jlic4GooHUhA-Gu6yfs-36" target="4Jlic4GooHUhA-Gu6yfs-15" edge="1">
          <mxGeometry x="-0.1897" width="50" height="50" relative="1" as="geometry">
            <mxPoint x="428.94" y="1818.22" as="sourcePoint" />
            <mxPoint x="478.94" y="1768.22" as="targetPoint" />
            <Array as="points">
              <mxPoint x="-291.06" y="1968.22" />
              <mxPoint x="-291.06" y="1650.22" />
            </Array>
            <mxPoint as="offset" />
          </mxGeometry>
        </mxCell>
        <mxCell id="4Jlic4GooHUhA-Gu6yfs-49" value="CALLS" style="endArrow=classic;startArrow=classic;html=1;fontFamily=Times New Roman;exitX=0;exitY=0.25;exitDx=0;exitDy=0;entryX=0;entryY=1;entryDx=0;entryDy=0;fillColor=#d5e8d4;strokeColor=#82b366;spacingTop=3;" parent="1" source="4Jlic4GooHUhA-Gu6yfs-16" target="4Jlic4GooHUhA-Gu6yfs-15" edge="1">
          <mxGeometry width="50" height="50" relative="1" as="geometry">
            <mxPoint x="428.94" y="1768.22" as="sourcePoint" />
            <mxPoint x="478.94" y="1718.22" as="targetPoint" />
            <Array as="points">
              <mxPoint x="-231.06" y="1776.22" />
              <mxPoint x="-231.06" y="1708.22" />
              <mxPoint x="-231.06" y="1663.22" />
            </Array>
          </mxGeometry>
        </mxCell>
        <mxCell id="4Jlic4GooHUhA-Gu6yfs-52" value="BLOB STORAGE" style="endArrow=classic;startArrow=classic;html=1;fontFamily=Times New Roman;exitDx=0;exitDy=0;entryDx=0;entryDy=0;fillColor=#dae8fc;strokeColor=#6c8ebf;spacingTop=3;" parent="1" source="4Jlic4GooHUhA-Gu6yfs-15" edge="1">
          <mxGeometry width="50" height="50" relative="1" as="geometry">
            <mxPoint x="269" y="1708.22" as="sourcePoint" />
            <mxPoint x="1610.0335841474498" y="773.7071384202193" as="targetPoint" />
          </mxGeometry>
        </mxCell>
        <mxCell id="4Jlic4GooHUhA-Gu6yfs-113" value="" style="endArrow=classic;html=1;fontFamily=Times New Roman;exitX=0.75;exitY=1;exitDx=0;exitDy=0;spacingTop=3;entryX=0.172;entryY=0.01;entryDx=0;entryDy=0;entryPerimeter=0;fillColor=#e51400;strokeColor=#B20000;" parent="1" source="4Jlic4GooHUhA-Gu6yfs-20" target="4Jlic4GooHUhA-Gu6yfs-32" edge="1">
          <mxGeometry width="50" height="50" relative="1" as="geometry">
            <mxPoint x="329" y="1588.22" as="sourcePoint" />
            <mxPoint x="379" y="1538.22" as="targetPoint" />
            <Array as="points">
              <mxPoint x="69" y="1483.22" />
              <mxPoint x="69" y="1428.22" />
            </Array>
          </mxGeometry>
        </mxCell>
        <mxCell id="4Jlic4GooHUhA-Gu6yfs-115" value="" style="endArrow=classic;html=1;fontFamily=Times New Roman;exitX=1;exitY=0.75;exitDx=0;exitDy=0;entryX=0;entryY=0;entryDx=10;entryDy=10;entryPerimeter=0;spacingTop=3;fillColor=#e51400;strokeColor=#B20000;" parent="1" source="4Jlic4GooHUhA-Gu6yfs-15" target="4Jlic4GooHUhA-Gu6yfs-32" edge="1">
          <mxGeometry width="50" height="50" relative="1" as="geometry">
            <mxPoint x="329" y="1588.22" as="sourcePoint" />
            <mxPoint x="379" y="1538.22" as="targetPoint" />
            <Array as="points">
              <mxPoint x="139" y="1630.22" />
              <mxPoint x="219" y="1630.22" />
              <mxPoint x="219" y="1508.22" />
              <mxPoint x="219" y="1438.22" />
            </Array>
          </mxGeometry>
        </mxCell>
        <mxCell id="4Jlic4GooHUhA-Gu6yfs-138" value="cc5OfficeAPI2/swagger/index.html" style="edgeLabel;html=1;align=center;verticalAlign=middle;resizable=0;points=[];fontFamily=Times New Roman;" parent="4Jlic4GooHUhA-Gu6yfs-115" vertex="1" connectable="0">
          <mxGeometry x="-0.3178" y="-2" relative="1" as="geometry">
            <mxPoint x="46.28" y="-4.08" as="offset" />
          </mxGeometry>
        </mxCell>
        <mxCell id="4Jlic4GooHUhA-Gu6yfs-116" value="" style="endArrow=classic;html=1;fontFamily=Times New Roman;exitX=1;exitY=0;exitDx=0;exitDy=0;entryX=0.317;entryY=1.033;entryDx=0;entryDy=0;entryPerimeter=0;spacingTop=3;fillColor=#e51400;strokeColor=#B20000;" parent="1" source="4Jlic4GooHUhA-Gu6yfs-36" target="4Jlic4GooHUhA-Gu6yfs-32" edge="1">
          <mxGeometry width="50" height="50" relative="1" as="geometry">
            <mxPoint x="329" y="1588.22" as="sourcePoint" />
            <mxPoint x="379" y="1538.22" as="targetPoint" />
            <Array as="points">
              <mxPoint x="296" y="1913.22" />
            </Array>
          </mxGeometry>
        </mxCell>
        <mxCell id="4Jlic4GooHUhA-Gu6yfs-117" value="" style="endArrow=classic;html=1;fontFamily=Times New Roman;exitX=1;exitY=0.5;exitDx=0;exitDy=0;entryX=0;entryY=0.5;entryDx=0;entryDy=0;entryPerimeter=0;spacingTop=3;fillColor=#e51400;strokeColor=#B20000;" parent="1" source="4Jlic4GooHUhA-Gu6yfs-16" target="4Jlic4GooHUhA-Gu6yfs-32" edge="1">
          <mxGeometry width="50" height="50" relative="1" as="geometry">
            <mxPoint x="329" y="1588.22" as="sourcePoint" />
            <mxPoint x="379" y="1538.22" as="targetPoint" />
            <Array as="points">
              <mxPoint x="169" y="1778.22" />
              <mxPoint x="259" y="1778.22" />
            </Array>
          </mxGeometry>
        </mxCell>
        <mxCell id="ia1N69vxbkXkgOw2r9y7-1" value="cc5partners/swagger/index.html" style="edgeLabel;html=1;align=center;verticalAlign=middle;resizable=0;points=[];" parent="4Jlic4GooHUhA-Gu6yfs-117" vertex="1" connectable="0">
          <mxGeometry x="-0.4192" y="3" relative="1" as="geometry">
            <mxPoint as="offset" />
          </mxGeometry>
        </mxCell>
        <mxCell id="4Jlic4GooHUhA-Gu6yfs-118" value="" style="endArrow=classic;html=1;fontFamily=Times New Roman;exitX=0;exitY=0;exitDx=0;exitDy=0;spacingTop=3;fillColor=#e51400;strokeColor=#B20000;" parent="1" source="4Jlic4GooHUhA-Gu6yfs-33" edge="1">
          <mxGeometry width="50" height="50" relative="1" as="geometry">
            <mxPoint x="329" y="1588.22" as="sourcePoint" />
            <mxPoint x="329" y="1470.22" as="targetPoint" />
            <Array as="points">
              <mxPoint x="329" y="1913.22" />
            </Array>
          </mxGeometry>
        </mxCell>
        <mxCell id="4Jlic4GooHUhA-Gu6yfs-119" value="" style="endArrow=classic;html=1;fontFamily=Times New Roman;exitX=0;exitY=0.25;exitDx=0;exitDy=0;spacingTop=3;entryX=0;entryY=0;entryDx=90;entryDy=30;entryPerimeter=0;fillColor=#e51400;strokeColor=#B20000;" parent="1" source="4Jlic4GooHUhA-Gu6yfs-17" target="4Jlic4GooHUhA-Gu6yfs-32" edge="1">
          <mxGeometry width="50" height="50" relative="1" as="geometry">
            <mxPoint x="369" y="1578.22" as="sourcePoint" />
            <mxPoint x="419" y="1528.22" as="targetPoint" />
            <Array as="points">
              <mxPoint x="354" y="1756.22" />
              <mxPoint x="354" y="1548.22" />
            </Array>
          </mxGeometry>
        </mxCell>
        <mxCell id="4Jlic4GooHUhA-Gu6yfs-120" value="" style="endArrow=classic;html=1;fontFamily=Times New Roman;exitX=0;exitY=0.25;exitDx=0;exitDy=0;entryX=0;entryY=0;entryDx=90;entryDy=30;entryPerimeter=0;spacingTop=3;fillColor=#e51400;strokeColor=#B20000;" parent="1" source="4Jlic4GooHUhA-Gu6yfs-19" target="4Jlic4GooHUhA-Gu6yfs-32" edge="1">
          <mxGeometry width="50" height="50" relative="1" as="geometry">
            <mxPoint x="369" y="1578.22" as="sourcePoint" />
            <mxPoint x="419" y="1528.22" as="targetPoint" />
            <Array as="points">
              <mxPoint x="429" y="1586.22" />
              <mxPoint x="429" y="1518.22" />
              <mxPoint x="429" y="1458.22" />
            </Array>
          </mxGeometry>
        </mxCell>
        <mxCell id="4Jlic4GooHUhA-Gu6yfs-121" value="" style="endArrow=classic;html=1;fontFamily=Times New Roman;exitX=0;exitY=0.5;exitDx=0;exitDy=0;spacingTop=3;fillColor=#e51400;strokeColor=#B20000;" parent="1" source="4Jlic4GooHUhA-Gu6yfs-18" edge="1">
          <mxGeometry width="50" height="50" relative="1" as="geometry">
            <mxPoint x="369" y="1578.22" as="sourcePoint" />
            <mxPoint x="349" y="1438.22" as="targetPoint" />
          </mxGeometry>
        </mxCell>
        <mxCell id="4Jlic4GooHUhA-Gu6yfs-16" value="&lt;span style=&quot;font-size: 11.0pt ; font-family: &amp;#34;calibri&amp;#34; , sans-serif&quot;&gt;&lt;font color=&quot;#000000&quot;&gt;Partner&lt;br/&gt;API&lt;/font&gt;&lt;/span&gt;" style="aspect=fixed;perimeter=ellipsePerimeter;html=1;align=center;shadow=0;dashed=0;fontColor=#4277BB;labelBackgroundColor=#ffffff;fontSize=12;spacingTop=3;image;image=img/lib/ibm/management/api_management.svg;" parent="1" vertex="1">
          <mxGeometry x="-181.06" y="1748.22" width="100" height="100" as="geometry" />
        </mxCell>
        <mxCell id="4Jlic4GooHUhA-Gu6yfs-33" value="&lt;span style=&quot;font-size: 11.0pt ; font-family: &amp;#34;calibri&amp;#34; , sans-serif&quot;&gt;&lt;font color=&quot;#000000&quot;&gt;Deliverect&lt;br/&gt;API&lt;/font&gt;&lt;/span&gt;" style="aspect=fixed;perimeter=ellipsePerimeter;html=1;align=center;shadow=0;dashed=0;fontColor=#4277BB;labelBackgroundColor=#ffffff;fontSize=12;spacingTop=3;image;image=img/lib/ibm/management/api_management.svg;" parent="1" vertex="1">
          <mxGeometry x="739" y="1898.22" width="100" height="100" as="geometry" />
        </mxCell>
        <mxCell id="4Jlic4GooHUhA-Gu6yfs-133" value="ZABBIX" style="swimlane;fontStyle=0;childLayout=stackLayout;horizontal=1;startSize=26;horizontalStack=0;resizeParent=1;resizeParentMax=0;resizeLast=0;collapsible=1;marginBottom=0;align=center;fontSize=14;" parent="1" vertex="1">
          <mxGeometry x="-225" y="-1830" width="160" height="78" as="geometry" />
        </mxCell>
        <mxCell id="4Jlic4GooHUhA-Gu6yfs-134" value="ALL APIs USE" style="text;strokeColor=none;fillColor=none;spacingLeft=4;spacingRight=4;overflow=hidden;rotatable=0;points=[[0,0.5],[1,0.5]];portConstraint=eastwest;fontSize=12;" parent="4Jlic4GooHUhA-Gu6yfs-133" vertex="1">
          <mxGeometry y="26" width="160" height="30" as="geometry" />
        </mxCell>
        <mxCell id="4Jlic4GooHUhA-Gu6yfs-135" value="TO GET STATUS" style="text;strokeColor=none;fillColor=none;spacingLeft=4;spacingRight=4;overflow=hidden;rotatable=0;points=[[0,0.5],[1,0.5]];portConstraint=eastwest;fontSize=12;" parent="4Jlic4GooHUhA-Gu6yfs-133" vertex="1">
          <mxGeometry y="56" width="160" height="22" as="geometry" />
        </mxCell>
        <mxCell id="OX6Z1GExO-TKb89o3v1y-46" style="edgeStyle=orthogonalEdgeStyle;rounded=0;orthogonalLoop=1;jettySize=auto;html=1;exitX=0.5;exitY=1;exitDx=0;exitDy=0;" edge="1" parent="1" source="OX6Z1GExO-TKb89o3v1y-1" target="OX6Z1GExO-TKb89o3v1y-39">
          <mxGeometry relative="1" as="geometry" />
        </mxCell>
        <mxCell id="OX6Z1GExO-TKb89o3v1y-47" value="HOSTS" style="edgeLabel;html=1;align=center;verticalAlign=middle;resizable=0;points=[];" vertex="1" connectable="0" parent="OX6Z1GExO-TKb89o3v1y-46">
          <mxGeometry x="0.5114" y="-3" relative="1" as="geometry">
            <mxPoint y="1" as="offset" />
          </mxGeometry>
        </mxCell>
        <mxCell id="OX6Z1GExO-TKb89o3v1y-1" value="&lt;span style=&quot;font-size: 11.0pt ; font-family: &amp;quot;calibri&amp;quot; , sans-serif&quot;&gt;47.91.107.48&lt;br&gt;UAE host&lt;br&gt;Alibaba&lt;/span&gt;" style="aspect=fixed;perimeter=ellipsePerimeter;html=1;align=center;shadow=0;dashed=0;spacingTop=3;image;image=img/lib/active_directory/generic_server.svg;fontFamily=Times New Roman;" vertex="1" parent="1">
          <mxGeometry x="114" y="-1390" width="52" height="92.86" as="geometry" />
        </mxCell>
        <mxCell id="OX6Z1GExO-TKb89o3v1y-50" value="" style="endArrow=none;startArrow=classic;html=1;fontFamily=Times New Roman;entryX=1;entryY=1;entryDx=0;entryDy=0;exitX=0.5;exitY=0;exitDx=0;exitDy=0;rounded=1;endFill=0;fillColor=#dae8fc;strokeColor=#6c8ebf;spacingTop=3;" edge="1" parent="1" source="4Jlic4GooHUhA-Gu6yfs-3" target="4Jlic4GooHUhA-Gu6yfs-10">
          <mxGeometry width="50" height="50" relative="1" as="geometry">
            <mxPoint x="1207" y="-1105" as="sourcePoint" />
            <mxPoint x="940" y="-1338" as="targetPoint" />
            <Array as="points">
              <mxPoint x="1087" y="-1301" />
            </Array>
          </mxGeometry>
        </mxCell>
        <mxCell id="OX6Z1GExO-TKb89o3v1y-51" value="HOSTS" style="edgeLabel;html=1;align=center;verticalAlign=middle;resizable=0;points=[];" vertex="1" connectable="0" parent="OX6Z1GExO-TKb89o3v1y-50">
          <mxGeometry x="0.4538" y="-4" relative="1" as="geometry">
            <mxPoint x="-1" as="offset" />
          </mxGeometry>
        </mxCell>
        <mxCell id="4Jlic4GooHUhA-Gu6yfs-1" value="IdentityDb" style="shape=datastore;whiteSpace=wrap;html=1;spacingTop=3;" parent="1" vertex="1">
          <mxGeometry x="792" y="-1100" width="90" height="90" as="geometry" />
        </mxCell>
        <mxCell id="OX6Z1GExO-TKb89o3v1y-53" value="" style="edgeStyle=orthogonalEdgeStyle;rounded=1;orthogonalLoop=1;jettySize=auto;html=1;startArrow=none;startFill=0;endArrow=classic;endFill=1;fontFamily=Times New Roman;entryDx=0;entryDy=0;fillColor=#dae8fc;strokeColor=#6c8ebf;spacingTop=3;exitDx=0;exitDy=0;" edge="1" parent="1" target="OX6Z1GExO-TKb89o3v1y-52">
          <mxGeometry relative="1" as="geometry">
            <mxPoint x="109" y="2193.2200000000003" as="targetPoint" />
            <mxPoint x="1609.0000002820343" y="759.9977777777774" as="sourcePoint" />
          </mxGeometry>
        </mxCell>
        <mxCell id="OX6Z1GExO-TKb89o3v1y-52" value="&lt;span style=&quot;font-size: 11.0pt ; font-family: &amp;quot;calibri&amp;quot; , sans-serif&quot;&gt;CC&amp;nbsp;&lt;/span&gt;&lt;div&gt;&lt;span style=&quot;font-size: 11.0pt ; font-family: &amp;quot;calibri&amp;quot; , sans-serif&quot;&gt;Retail&lt;br&gt;&lt;/span&gt;&lt;/div&gt;" style="shape=ext;double=1;rounded=1;whiteSpace=wrap;html=1;fontFamily=Times New Roman;spacingTop=3;" vertex="1" parent="1">
          <mxGeometry x="-41.06" y="2398.2200000000003" width="80" height="50" as="geometry" />
        </mxCell>
        <mxCell id="OX6Z1GExO-TKb89o3v1y-56" value="" style="group" vertex="1" connectable="0" parent="1">
          <mxGeometry x="50" y="-1105.35" width="180" height="200" as="geometry" />
        </mxCell>
        <mxCell id="OX6Z1GExO-TKb89o3v1y-39" value="" style="shape=datastore;whiteSpace=wrap;html=1;spacingTop=3;" vertex="1" parent="OX6Z1GExO-TKb89o3v1y-56">
          <mxGeometry width="180" height="200" as="geometry" />
        </mxCell>
        <mxCell id="OX6Z1GExO-TKb89o3v1y-40" value="UAE Customer central DBs&lt;div&gt;Instances&lt;/div&gt;" style="swimlane;fontStyle=0;childLayout=stackLayout;horizontal=1;startSize=50;fillColor=none;horizontalStack=0;resizeParent=1;resizeParentMax=0;resizeLast=0;collapsible=1;marginBottom=0;html=1;" vertex="1" parent="OX6Z1GExO-TKb89o3v1y-56">
          <mxGeometry y="89.99999999999989" width="180" height="76" as="geometry" />
        </mxCell>
        <mxCell id="OX6Z1GExO-TKb89o3v1y-41" value="65421" style="text;strokeColor=none;fillColor=none;align=left;verticalAlign=top;spacingLeft=4;spacingRight=4;overflow=hidden;rotatable=0;points=[[0,0.5],[1,0.5]];portConstraint=eastwest;whiteSpace=wrap;html=1;" vertex="1" parent="OX6Z1GExO-TKb89o3v1y-40">
          <mxGeometry y="50" width="180" height="26" as="geometry" />
        </mxCell>
        <mxCell id="OX6Z1GExO-TKb89o3v1y-57" value="" style="group" vertex="1" connectable="0" parent="1">
          <mxGeometry x="-245" y="-1100" width="180" height="200" as="geometry" />
        </mxCell>
        <mxCell id="OX6Z1GExO-TKb89o3v1y-36" value="" style="shape=datastore;whiteSpace=wrap;html=1;spacingTop=3;" vertex="1" parent="OX6Z1GExO-TKb89o3v1y-57">
          <mxGeometry width="180" height="200" as="geometry" />
        </mxCell>
        <mxCell id="OX6Z1GExO-TKb89o3v1y-37" value="Latvian Customer central DBs&lt;div&gt;Instances&lt;/div&gt;" style="swimlane;fontStyle=0;childLayout=stackLayout;horizontal=1;startSize=50;fillColor=none;horizontalStack=0;resizeParent=1;resizeParentMax=0;resizeLast=0;collapsible=1;marginBottom=0;html=1;" vertex="1" parent="OX6Z1GExO-TKb89o3v1y-57">
          <mxGeometry y="90" width="180" height="76" as="geometry" />
        </mxCell>
        <mxCell id="OX6Z1GExO-TKb89o3v1y-38" value="65427" style="text;strokeColor=none;fillColor=none;align=left;verticalAlign=top;spacingLeft=4;spacingRight=4;overflow=hidden;rotatable=0;points=[[0,0.5],[1,0.5]];portConstraint=eastwest;whiteSpace=wrap;html=1;" vertex="1" parent="OX6Z1GExO-TKb89o3v1y-37">
          <mxGeometry y="50" width="180" height="26" as="geometry" />
        </mxCell>
        <mxCell id="OX6Z1GExO-TKb89o3v1y-58" value="" style="group" vertex="1" connectable="0" parent="1">
          <mxGeometry x="-455" y="-1100" width="190" height="200" as="geometry" />
        </mxCell>
        <mxCell id="OX6Z1GExO-TKb89o3v1y-27" value="" style="shape=datastore;whiteSpace=wrap;html=1;spacingTop=3;" vertex="1" parent="OX6Z1GExO-TKb89o3v1y-58">
          <mxGeometry width="190" height="200" as="geometry" />
        </mxCell>
        <mxCell id="OX6Z1GExO-TKb89o3v1y-28" value="Estonian internal TEST central DBs&lt;div&gt;Instances&lt;/div&gt;" style="swimlane;fontStyle=0;childLayout=stackLayout;horizontal=1;startSize=50;fillColor=none;horizontalStack=0;resizeParent=1;resizeParentMax=0;resizeLast=0;collapsible=1;marginBottom=0;html=1;" vertex="1" parent="OX6Z1GExO-TKb89o3v1y-58">
          <mxGeometry y="90" width="190" height="76" as="geometry" />
        </mxCell>
        <mxCell id="OX6Z1GExO-TKb89o3v1y-29" value="65426" style="text;strokeColor=none;fillColor=none;align=left;verticalAlign=top;spacingLeft=4;spacingRight=4;overflow=hidden;rotatable=0;points=[[0,0.5],[1,0.5]];portConstraint=eastwest;whiteSpace=wrap;html=1;" vertex="1" parent="OX6Z1GExO-TKb89o3v1y-28">
          <mxGeometry y="50" width="190" height="26" as="geometry" />
        </mxCell>
        <mxCell id="OX6Z1GExO-TKb89o3v1y-59" value="" style="group" vertex="1" connectable="0" parent="1">
          <mxGeometry x="-655" y="-1100" width="180" height="410" as="geometry" />
        </mxCell>
        <mxCell id="OX6Z1GExO-TKb89o3v1y-2" value="" style="shape=datastore;whiteSpace=wrap;html=1;spacingTop=3;" vertex="1" parent="OX6Z1GExO-TKb89o3v1y-59">
          <mxGeometry width="180" height="410" as="geometry" />
        </mxCell>
        <mxCell id="OX6Z1GExO-TKb89o3v1y-19" value="Estonian Customer central DBs&lt;div&gt;Instances&lt;/div&gt;" style="swimlane;fontStyle=0;childLayout=stackLayout;horizontal=1;startSize=50;fillColor=none;horizontalStack=0;resizeParent=1;resizeParentMax=0;resizeLast=0;collapsible=1;marginBottom=0;html=1;" vertex="1" parent="OX6Z1GExO-TKb89o3v1y-59">
          <mxGeometry y="150" width="180" height="204" as="geometry" />
        </mxCell>
        <mxCell id="OX6Z1GExO-TKb89o3v1y-20" value="65421" style="text;strokeColor=none;fillColor=none;align=left;verticalAlign=top;spacingLeft=4;spacingRight=4;overflow=hidden;rotatable=0;points=[[0,0.5],[1,0.5]];portConstraint=eastwest;whiteSpace=wrap;html=1;" vertex="1" parent="OX6Z1GExO-TKb89o3v1y-19">
          <mxGeometry y="50" width="180" height="20" as="geometry" />
        </mxCell>
        <mxCell id="OX6Z1GExO-TKb89o3v1y-21" value="65422" style="text;strokeColor=none;fillColor=none;align=left;verticalAlign=top;spacingLeft=4;spacingRight=4;overflow=hidden;rotatable=0;points=[[0,0.5],[1,0.5]];portConstraint=eastwest;whiteSpace=wrap;html=1;" vertex="1" parent="OX6Z1GExO-TKb89o3v1y-19">
          <mxGeometry y="70" width="180" height="24" as="geometry" />
        </mxCell>
        <mxCell id="OX6Z1GExO-TKb89o3v1y-22" value="65423" style="text;strokeColor=none;fillColor=none;align=left;verticalAlign=top;spacingLeft=4;spacingRight=4;overflow=hidden;rotatable=0;points=[[0,0.5],[1,0.5]];portConstraint=eastwest;whiteSpace=wrap;html=1;" vertex="1" parent="OX6Z1GExO-TKb89o3v1y-19">
          <mxGeometry y="94" width="180" height="22" as="geometry" />
        </mxCell>
        <mxCell id="OX6Z1GExO-TKb89o3v1y-23" value="65424" style="text;strokeColor=none;fillColor=none;align=left;verticalAlign=top;spacingLeft=4;spacingRight=4;overflow=hidden;rotatable=0;points=[[0,0.5],[1,0.5]];portConstraint=eastwest;whiteSpace=wrap;html=1;" vertex="1" parent="OX6Z1GExO-TKb89o3v1y-19">
          <mxGeometry y="116" width="180" height="22" as="geometry" />
        </mxCell>
        <mxCell id="OX6Z1GExO-TKb89o3v1y-24" value="65425" style="text;strokeColor=none;fillColor=none;align=left;verticalAlign=top;spacingLeft=4;spacingRight=4;overflow=hidden;rotatable=0;points=[[0,0.5],[1,0.5]];portConstraint=eastwest;whiteSpace=wrap;html=1;" vertex="1" parent="OX6Z1GExO-TKb89o3v1y-19">
          <mxGeometry y="138" width="180" height="22" as="geometry" />
        </mxCell>
        <mxCell id="OX6Z1GExO-TKb89o3v1y-25" value="65428" style="text;strokeColor=none;fillColor=none;align=left;verticalAlign=top;spacingLeft=4;spacingRight=4;overflow=hidden;rotatable=0;points=[[0,0.5],[1,0.5]];portConstraint=eastwest;whiteSpace=wrap;html=1;" vertex="1" parent="OX6Z1GExO-TKb89o3v1y-19">
          <mxGeometry y="160" width="180" height="22" as="geometry" />
        </mxCell>
        <mxCell id="OX6Z1GExO-TKb89o3v1y-26" value="65430" style="text;strokeColor=none;fillColor=none;align=left;verticalAlign=top;spacingLeft=4;spacingRight=4;overflow=hidden;rotatable=0;points=[[0,0.5],[1,0.5]];portConstraint=eastwest;whiteSpace=wrap;html=1;" vertex="1" parent="OX6Z1GExO-TKb89o3v1y-19">
          <mxGeometry y="182" width="180" height="22" as="geometry" />
        </mxCell>
        <mxCell id="OX6Z1GExO-TKb89o3v1y-64" value="" style="group" vertex="1" connectable="0" parent="1">
          <mxGeometry x="801" y="-390" width="200" height="1640.4794520547946" as="geometry" />
        </mxCell>
        <mxCell id="OX6Z1GExO-TKb89o3v1y-66" value="" style="group" vertex="1" connectable="0" parent="OX6Z1GExO-TKb89o3v1y-64">
          <mxGeometry y="-209.52054794520546" width="200" height="1850" as="geometry" />
        </mxCell>
        <mxCell id="OX6Z1GExO-TKb89o3v1y-60" value="LIVE Estonia" style="swimlane;container=0;" vertex="1" parent="OX6Z1GExO-TKb89o3v1y-66">
          <mxGeometry y="-170" width="200" height="2020" as="geometry" />
        </mxCell>
        <mxCell id="OX6Z1GExO-TKb89o3v1y-92" value="&lt;font face=&quot;calibri, sans-serif&quot; color=&quot;#000000&quot;&gt;&lt;span style=&quot;font-size: 14.6667px;&quot;&gt;CC5 Delivery&lt;/span&gt;&lt;/font&gt;&lt;div&gt;&lt;font face=&quot;calibri, sans-serif&quot; color=&quot;#000000&quot;&gt;&lt;span style=&quot;font-size: 14.6667px;&quot;&gt;API&lt;/span&gt;&lt;/font&gt;&lt;/div&gt;&lt;div&gt;&lt;font face=&quot;calibri, sans-serif&quot; color=&quot;#000000&quot;&gt;&lt;span style=&quot;font-size: 14.6667px;&quot;&gt;live_cc5delivery&lt;/span&gt;&lt;/font&gt;&lt;/div&gt;" style="aspect=fixed;perimeter=ellipsePerimeter;html=1;align=center;shadow=0;dashed=0;fontColor=#4277BB;labelBackgroundColor=#ffffff;fontSize=12;spacingTop=3;image;image=img/lib/ibm/management/api_management.svg;" vertex="1" parent="OX6Z1GExO-TKb89o3v1y-60">
          <mxGeometry x="50" y="49.520547945205465" width="100" height="100" as="geometry" />
        </mxCell>
        <mxCell id="OX6Z1GExO-TKb89o3v1y-93" value="&lt;span style=&quot;font-size: 11.0pt ; font-family: &amp;quot;calibri&amp;quot; , sans-serif&quot;&gt;&lt;font color=&quot;#000000&quot;&gt;CC5 Retail&lt;br&gt;API&lt;/font&gt;&lt;/span&gt;&lt;div&gt;&lt;span style=&quot;font-size: 11.0pt ; font-family: &amp;quot;calibri&amp;quot; , sans-serif&quot;&gt;&lt;font color=&quot;#000000&quot;&gt;live_retailapi&lt;/font&gt;&lt;/span&gt;&lt;/div&gt;" style="aspect=fixed;perimeter=ellipsePerimeter;html=1;align=center;shadow=0;dashed=0;fontColor=#4277BB;labelBackgroundColor=#ffffff;fontSize=12;spacingTop=3;image;image=img/lib/ibm/management/api_management.svg;" vertex="1" parent="OX6Z1GExO-TKb89o3v1y-60">
          <mxGeometry x="50" y="779.5205479452054" width="100" height="100" as="geometry" />
        </mxCell>
        <mxCell id="OX6Z1GExO-TKb89o3v1y-94" value="&lt;span style=&quot;font-size: 11.0pt ; font-family: &amp;quot;calibri&amp;quot; , sans-serif&quot;&gt;&lt;font color=&quot;#000000&quot;&gt;CC5 Partners&lt;br&gt;API&lt;/font&gt;&lt;/span&gt;&lt;div&gt;&lt;span style=&quot;font-size: 11.0pt ; font-family: &amp;quot;calibri&amp;quot; , sans-serif&quot;&gt;&lt;font color=&quot;#000000&quot;&gt;live_cc5partners&lt;/font&gt;&lt;/span&gt;&lt;/div&gt;" style="aspect=fixed;perimeter=ellipsePerimeter;html=1;align=center;shadow=0;dashed=0;fontColor=#4277BB;labelBackgroundColor=#ffffff;fontSize=12;spacingTop=3;image;image=img/lib/ibm/management/api_management.svg;" vertex="1" parent="OX6Z1GExO-TKb89o3v1y-60">
          <mxGeometry x="50" y="429.52054794520546" width="100" height="100" as="geometry" />
        </mxCell>
        <mxCell id="OX6Z1GExO-TKb89o3v1y-95" value="&lt;span style=&quot;font-size: 11.0pt ; font-family: &amp;quot;calibri&amp;quot; , sans-serif&quot;&gt;&lt;font color=&quot;#000000&quot;&gt;CCAdmin&lt;br&gt;API&lt;/font&gt;&lt;/span&gt;&lt;div&gt;&lt;span style=&quot;font-size: 11.0pt ; font-family: &amp;quot;calibri&amp;quot; , sans-serif&quot;&gt;&lt;font color=&quot;#000000&quot;&gt;live_ccadminapi&lt;/font&gt;&lt;/span&gt;&lt;/div&gt;" style="aspect=fixed;perimeter=ellipsePerimeter;html=1;align=center;shadow=0;dashed=0;fontColor=#4277BB;labelBackgroundColor=#ffffff;fontSize=12;spacingTop=3;image;image=img/lib/ibm/management/api_management.svg;" vertex="1" parent="OX6Z1GExO-TKb89o3v1y-60">
          <mxGeometry x="50" y="959.5205479452054" width="100" height="100" as="geometry" />
        </mxCell>
        <mxCell id="OX6Z1GExO-TKb89o3v1y-96" value="&lt;span style=&quot;font-size: 11.0pt ; font-family: &amp;quot;calibri&amp;quot; , sans-serif&quot;&gt;&lt;font color=&quot;#000000&quot;&gt;CSV Importer&lt;br&gt;API&lt;/font&gt;&lt;/span&gt;&lt;div&gt;&lt;span style=&quot;font-size: 11.0pt ; font-family: &amp;quot;calibri&amp;quot; , sans-serif&quot;&gt;&lt;font color=&quot;#000000&quot;&gt;live_csv_importer&lt;/font&gt;&lt;/span&gt;&lt;/div&gt;" style="aspect=fixed;perimeter=ellipsePerimeter;html=1;align=center;shadow=0;dashed=0;fontColor=#4277BB;labelBackgroundColor=#ffffff;fontSize=12;spacingTop=3;image;image=img/lib/ibm/management/api_management.svg;" vertex="1" parent="OX6Z1GExO-TKb89o3v1y-60">
          <mxGeometry x="50" y="1479.5205479452054" width="100" height="100" as="geometry" />
        </mxCell>
        <mxCell id="OX6Z1GExO-TKb89o3v1y-97" value="&lt;span style=&quot;font-size: 11.0pt ; font-family: &amp;quot;calibri&amp;quot; , sans-serif&quot;&gt;&lt;font color=&quot;#000000&quot;&gt;IdentityServer&lt;br&gt;API&lt;/font&gt;&lt;/span&gt;&lt;div&gt;&lt;span style=&quot;font-size: 11.0pt ; font-family: &amp;quot;calibri&amp;quot; , sans-serif&quot;&gt;&lt;font color=&quot;#000000&quot;&gt;live_identity&lt;/font&gt;&lt;/span&gt;&lt;/div&gt;" style="aspect=fixed;perimeter=ellipsePerimeter;html=1;align=center;shadow=0;dashed=0;fontColor=#4277BB;labelBackgroundColor=#ffffff;fontSize=12;spacingTop=3;image;image=img/lib/ibm/management/api_management.svg;" vertex="1" parent="OX6Z1GExO-TKb89o3v1y-60">
          <mxGeometry x="50" y="1839.5205479452054" width="100" height="100" as="geometry" />
        </mxCell>
        <mxCell id="OX6Z1GExO-TKb89o3v1y-98" value="&lt;span style=&quot;font-size: 11.0pt ; font-family: &amp;quot;calibri&amp;quot; , sans-serif&quot;&gt;&lt;font color=&quot;#000000&quot;&gt;Wallet Passes&lt;br&gt;API&lt;/font&gt;&lt;/span&gt;&lt;div&gt;&lt;span style=&quot;font-size: 11.0pt ; font-family: &amp;quot;calibri&amp;quot; , sans-serif&quot;&gt;&lt;font color=&quot;#000000&quot;&gt;live_walletapi&lt;/font&gt;&lt;/span&gt;&lt;/div&gt;" style="aspect=fixed;perimeter=ellipsePerimeter;html=1;align=center;shadow=0;dashed=0;fontColor=#4277BB;labelBackgroundColor=#ffffff;fontSize=12;spacingTop=3;image;image=img/lib/ibm/management/api_management.svg;" vertex="1" parent="OX6Z1GExO-TKb89o3v1y-60">
          <mxGeometry x="50" y="1659.5205479452054" width="100" height="100" as="geometry" />
        </mxCell>
        <mxCell id="OX6Z1GExO-TKb89o3v1y-99" value="&lt;span style=&quot;font-size: 11.0pt ; font-family: &amp;quot;calibri&amp;quot; , sans-serif&quot;&gt;&lt;font color=&quot;#000000&quot;&gt;CC5 Office&lt;/font&gt;&lt;/span&gt;&lt;div&gt;&lt;span style=&quot;font-size: 11.0pt ; font-family: &amp;quot;calibri&amp;quot; , sans-serif&quot;&gt;&lt;font color=&quot;#000000&quot;&gt;API&lt;/font&gt;&lt;/span&gt;&lt;/div&gt;&lt;div&gt;&lt;span style=&quot;font-size: 11.0pt ; font-family: &amp;quot;calibri&amp;quot; , sans-serif&quot;&gt;&lt;font color=&quot;#000000&quot;&gt;live_cc5office&lt;/font&gt;&lt;/span&gt;&lt;/div&gt;" style="aspect=fixed;perimeter=ellipsePerimeter;html=1;align=center;shadow=0;dashed=0;fontColor=#4277BB;labelBackgroundColor=#ffffff;fontSize=12;spacingTop=3;image;image=img/lib/ibm/management/api_management.svg;" vertex="1" parent="OX6Z1GExO-TKb89o3v1y-60">
          <mxGeometry x="50" y="239.52054794520546" width="100" height="100" as="geometry" />
        </mxCell>
        <mxCell id="OX6Z1GExO-TKb89o3v1y-100" value="&lt;span style=&quot;font-size: 11.0pt ; font-family: &amp;quot;calibri&amp;quot; , sans-serif&quot;&gt;&lt;font color=&quot;#000000&quot;&gt;CC5 Pos&lt;br&gt;API&lt;/font&gt;&lt;/span&gt;&lt;div&gt;&lt;span style=&quot;font-size: 11.0pt ; font-family: &amp;quot;calibri&amp;quot; , sans-serif&quot;&gt;&lt;font color=&quot;#000000&quot;&gt;live_cc5pos&lt;/font&gt;&lt;/span&gt;&lt;/div&gt;" style="aspect=fixed;perimeter=ellipsePerimeter;html=1;align=center;shadow=0;dashed=0;fontColor=#4277BB;labelBackgroundColor=#ffffff;fontSize=12;spacingTop=3;image;image=img/lib/ibm/management/api_management.svg;" vertex="1" parent="OX6Z1GExO-TKb89o3v1y-60">
          <mxGeometry x="50" y="599.5205479452054" width="100" height="100" as="geometry" />
        </mxCell>
        <mxCell id="OX6Z1GExO-TKb89o3v1y-101" value="&lt;span style=&quot;font-size: 11.0pt ; font-family: &amp;quot;calibri&amp;quot; , sans-serif&quot;&gt;&lt;font color=&quot;#000000&quot;&gt;CC Inventory&lt;br&gt;API&lt;/font&gt;&lt;/span&gt;&lt;div&gt;&lt;span style=&quot;font-size: 11.0pt ; font-family: &amp;quot;calibri&amp;quot; , sans-serif&quot;&gt;&lt;font color=&quot;#000000&quot;&gt;live_ccinventoryapi&lt;/font&gt;&lt;/span&gt;&lt;/div&gt;" style="aspect=fixed;perimeter=ellipsePerimeter;html=1;align=center;shadow=0;dashed=0;fontColor=#4277BB;labelBackgroundColor=#ffffff;fontSize=12;spacingTop=3;image;image=img/lib/ibm/management/api_management.svg;" vertex="1" parent="OX6Z1GExO-TKb89o3v1y-60">
          <mxGeometry x="50" y="1139.5205479452054" width="100" height="100" as="geometry" />
        </mxCell>
        <mxCell id="OX6Z1GExO-TKb89o3v1y-102" value="&lt;span style=&quot;font-size: 11.0pt ; font-family: &amp;quot;calibri&amp;quot; , sans-serif&quot;&gt;&lt;font color=&quot;#000000&quot;&gt;Concert POS&lt;br&gt;API&lt;/font&gt;&lt;/span&gt;&lt;div&gt;&lt;span style=&quot;font-size: 11.0pt ; font-family: &amp;quot;calibri&amp;quot; , sans-serif&quot;&gt;&lt;font color=&quot;#000000&quot;&gt;live_concert_pos_api&lt;/font&gt;&lt;/span&gt;&lt;/div&gt;" style="aspect=fixed;perimeter=ellipsePerimeter;html=1;align=center;shadow=0;dashed=0;fontColor=#4277BB;labelBackgroundColor=#ffffff;fontSize=12;spacingTop=3;image;image=img/lib/ibm/management/api_management.svg;" vertex="1" parent="OX6Z1GExO-TKb89o3v1y-60">
          <mxGeometry x="50" y="1309.5205479452054" width="100" height="100" as="geometry" />
        </mxCell>
        <mxCell id="OX6Z1GExO-TKb89o3v1y-61" value="DEV Estonia" style="swimlane;container=0;" vertex="1" parent="1">
          <mxGeometry x="1219" y="-750" width="200" height="1690" as="geometry" />
        </mxCell>
        <mxCell id="OX6Z1GExO-TKb89o3v1y-67" value="&lt;font face=&quot;calibri, sans-serif&quot; color=&quot;#000000&quot;&gt;&lt;span style=&quot;font-size: 14.6667px;&quot;&gt;CC5 Delivery&lt;/span&gt;&lt;/font&gt;&lt;div&gt;&lt;font face=&quot;calibri, sans-serif&quot; color=&quot;#000000&quot;&gt;&lt;span style=&quot;font-size: 14.6667px;&quot;&gt;API&lt;/span&gt;&lt;/font&gt;&lt;/div&gt;&lt;div&gt;&lt;font face=&quot;calibri, sans-serif&quot; color=&quot;#000000&quot;&gt;&lt;span style=&quot;font-size: 14.6667px;&quot;&gt;dev_cc5delivery&lt;/span&gt;&lt;/font&gt;&lt;/div&gt;" style="aspect=fixed;perimeter=ellipsePerimeter;html=1;align=center;shadow=0;dashed=0;fontColor=#4277BB;labelBackgroundColor=#ffffff;fontSize=12;spacingTop=3;image;image=img/lib/ibm/management/api_management.svg;" vertex="1" parent="OX6Z1GExO-TKb89o3v1y-61">
          <mxGeometry x="50" y="40" width="100" height="100" as="geometry" />
        </mxCell>
        <mxCell id="OX6Z1GExO-TKb89o3v1y-68" value="&lt;span style=&quot;font-size: 11.0pt ; font-family: &amp;quot;calibri&amp;quot; , sans-serif&quot;&gt;&lt;font color=&quot;#000000&quot;&gt;CC5 Retail&lt;br&gt;API&lt;/font&gt;&lt;/span&gt;&lt;div&gt;&lt;span style=&quot;font-size: 11.0pt ; font-family: &amp;quot;calibri&amp;quot; , sans-serif&quot;&gt;&lt;font color=&quot;#000000&quot;&gt;dev_cc5retail&lt;/font&gt;&lt;/span&gt;&lt;/div&gt;" style="aspect=fixed;perimeter=ellipsePerimeter;html=1;align=center;shadow=0;dashed=0;fontColor=#4277BB;labelBackgroundColor=#ffffff;fontSize=12;spacingTop=3;image;image=img/lib/ibm/management/api_management.svg;" vertex="1" parent="OX6Z1GExO-TKb89o3v1y-61">
          <mxGeometry x="50" y="770" width="100" height="100" as="geometry" />
        </mxCell>
        <mxCell id="OX6Z1GExO-TKb89o3v1y-72" value="&lt;span style=&quot;font-size: 11.0pt ; font-family: &amp;quot;calibri&amp;quot; , sans-serif&quot;&gt;&lt;font color=&quot;#000000&quot;&gt;CC5 Partners&lt;br&gt;API&lt;/font&gt;&lt;/span&gt;&lt;div&gt;&lt;span style=&quot;font-size: 11.0pt ; font-family: &amp;quot;calibri&amp;quot; , sans-serif&quot;&gt;&lt;font color=&quot;#000000&quot;&gt;dev_cc5partners&lt;/font&gt;&lt;/span&gt;&lt;/div&gt;" style="aspect=fixed;perimeter=ellipsePerimeter;html=1;align=center;shadow=0;dashed=0;fontColor=#4277BB;labelBackgroundColor=#ffffff;fontSize=12;spacingTop=3;image;image=img/lib/ibm/management/api_management.svg;" vertex="1" parent="OX6Z1GExO-TKb89o3v1y-61">
          <mxGeometry x="50" y="420" width="100" height="100" as="geometry" />
        </mxCell>
        <mxCell id="OX6Z1GExO-TKb89o3v1y-73" value="&lt;span style=&quot;font-size: 11.0pt ; font-family: &amp;quot;calibri&amp;quot; , sans-serif&quot;&gt;&lt;font color=&quot;#000000&quot;&gt;CCAdmin&lt;br&gt;API&lt;/font&gt;&lt;/span&gt;&lt;div&gt;&lt;span style=&quot;font-size: 11.0pt ; font-family: &amp;quot;calibri&amp;quot; , sans-serif&quot;&gt;&lt;font color=&quot;#000000&quot;&gt;dev_ccadminapi&lt;/font&gt;&lt;/span&gt;&lt;/div&gt;" style="aspect=fixed;perimeter=ellipsePerimeter;html=1;align=center;shadow=0;dashed=0;fontColor=#4277BB;labelBackgroundColor=#ffffff;fontSize=12;spacingTop=3;image;image=img/lib/ibm/management/api_management.svg;" vertex="1" parent="OX6Z1GExO-TKb89o3v1y-61">
          <mxGeometry x="50" y="950" width="100" height="100" as="geometry" />
        </mxCell>
        <mxCell id="OX6Z1GExO-TKb89o3v1y-75" value="&lt;span style=&quot;font-size: 11.0pt ; font-family: &amp;quot;calibri&amp;quot; , sans-serif&quot;&gt;&lt;font color=&quot;#000000&quot;&gt;CSV Importer&lt;br&gt;API&lt;/font&gt;&lt;/span&gt;&lt;div&gt;&lt;span style=&quot;font-size: 11.0pt ; font-family: &amp;quot;calibri&amp;quot; , sans-serif&quot;&gt;&lt;font color=&quot;#000000&quot;&gt;dev_csv_importer&lt;/font&gt;&lt;/span&gt;&lt;/div&gt;" style="aspect=fixed;perimeter=ellipsePerimeter;html=1;align=center;shadow=0;dashed=0;fontColor=#4277BB;labelBackgroundColor=#ffffff;fontSize=12;spacingTop=3;image;image=img/lib/ibm/management/api_management.svg;" vertex="1" parent="OX6Z1GExO-TKb89o3v1y-61">
          <mxGeometry x="50" y="1140" width="100" height="100" as="geometry" />
        </mxCell>
        <mxCell id="OX6Z1GExO-TKb89o3v1y-83" value="&lt;span style=&quot;font-size: 11.0pt ; font-family: &amp;quot;calibri&amp;quot; , sans-serif&quot;&gt;&lt;font color=&quot;#000000&quot;&gt;IdentityServer&lt;br&gt;API&lt;/font&gt;&lt;/span&gt;&lt;div&gt;&lt;span style=&quot;font-size: 11.0pt ; font-family: &amp;quot;calibri&amp;quot; , sans-serif&quot;&gt;&lt;font color=&quot;#000000&quot;&gt;dev_identity&lt;/font&gt;&lt;/span&gt;&lt;/div&gt;" style="aspect=fixed;perimeter=ellipsePerimeter;html=1;align=center;shadow=0;dashed=0;fontColor=#4277BB;labelBackgroundColor=#ffffff;fontSize=12;spacingTop=3;image;image=img/lib/ibm/management/api_management.svg;" vertex="1" parent="OX6Z1GExO-TKb89o3v1y-61">
          <mxGeometry x="50" y="1500" width="100" height="100" as="geometry" />
        </mxCell>
        <mxCell id="OX6Z1GExO-TKb89o3v1y-84" value="&lt;span style=&quot;font-size: 11.0pt ; font-family: &amp;quot;calibri&amp;quot; , sans-serif&quot;&gt;&lt;font color=&quot;#000000&quot;&gt;Wallet Passes&lt;br&gt;API&lt;/font&gt;&lt;/span&gt;&lt;div&gt;&lt;span style=&quot;font-size: 11.0pt ; font-family: &amp;quot;calibri&amp;quot; , sans-serif&quot;&gt;&lt;font color=&quot;#000000&quot;&gt;dev_walletapi&lt;/font&gt;&lt;/span&gt;&lt;/div&gt;" style="aspect=fixed;perimeter=ellipsePerimeter;html=1;align=center;shadow=0;dashed=0;fontColor=#4277BB;labelBackgroundColor=#ffffff;fontSize=12;spacingTop=3;image;image=img/lib/ibm/management/api_management.svg;" vertex="1" parent="OX6Z1GExO-TKb89o3v1y-61">
          <mxGeometry x="50" y="1320" width="100" height="100" as="geometry" />
        </mxCell>
        <mxCell id="OX6Z1GExO-TKb89o3v1y-71" value="&lt;span style=&quot;font-size: 11.0pt ; font-family: &amp;quot;calibri&amp;quot; , sans-serif&quot;&gt;&lt;font color=&quot;#000000&quot;&gt;CC5 Office&lt;/font&gt;&lt;/span&gt;&lt;div&gt;&lt;span style=&quot;font-size: 11.0pt ; font-family: &amp;quot;calibri&amp;quot; , sans-serif&quot;&gt;&lt;font color=&quot;#000000&quot;&gt;API&lt;/font&gt;&lt;/span&gt;&lt;/div&gt;&lt;div&gt;&lt;span style=&quot;font-size: 11.0pt ; font-family: &amp;quot;calibri&amp;quot; , sans-serif&quot;&gt;&lt;font color=&quot;#000000&quot;&gt;dev_cc5office&lt;/font&gt;&lt;/span&gt;&lt;/div&gt;" style="aspect=fixed;perimeter=ellipsePerimeter;html=1;align=center;shadow=0;dashed=0;fontColor=#4277BB;labelBackgroundColor=#ffffff;fontSize=12;spacingTop=3;image;image=img/lib/ibm/management/api_management.svg;" vertex="1" parent="OX6Z1GExO-TKb89o3v1y-61">
          <mxGeometry x="50" y="230" width="100" height="100" as="geometry" />
        </mxCell>
        <mxCell id="OX6Z1GExO-TKb89o3v1y-87" value="&lt;span style=&quot;font-size: 11.0pt ; font-family: &amp;quot;calibri&amp;quot; , sans-serif&quot;&gt;&lt;font color=&quot;#000000&quot;&gt;CC5 Pos&lt;br&gt;API&lt;/font&gt;&lt;/span&gt;&lt;div&gt;&lt;span style=&quot;font-size: 11.0pt ; font-family: &amp;quot;calibri&amp;quot; , sans-serif&quot;&gt;&lt;font color=&quot;#000000&quot;&gt;dev_cc5pos&lt;/font&gt;&lt;/span&gt;&lt;/div&gt;" style="aspect=fixed;perimeter=ellipsePerimeter;html=1;align=center;shadow=0;dashed=0;fontColor=#4277BB;labelBackgroundColor=#ffffff;fontSize=12;spacingTop=3;image;image=img/lib/ibm/management/api_management.svg;" vertex="1" parent="OX6Z1GExO-TKb89o3v1y-61">
          <mxGeometry x="50" y="590" width="100" height="100" as="geometry" />
        </mxCell>
        <mxCell id="OX6Z1GExO-TKb89o3v1y-130" style="edgeStyle=orthogonalEdgeStyle;rounded=0;orthogonalLoop=1;jettySize=auto;html=1;exitX=0;exitY=0.5;exitDx=0;exitDy=0;entryX=0.5;entryY=0;entryDx=0;entryDy=0;" edge="1" parent="1" source="OX6Z1GExO-TKb89o3v1y-76" target="OX6Z1GExO-TKb89o3v1y-91">
          <mxGeometry relative="1" as="geometry" />
        </mxCell>
        <mxCell id="OX6Z1GExO-TKb89o3v1y-131" style="edgeStyle=orthogonalEdgeStyle;rounded=0;orthogonalLoop=1;jettySize=auto;html=1;exitX=0.5;exitY=1;exitDx=0;exitDy=0;entryX=0.5;entryY=0;entryDx=0;entryDy=0;" edge="1" parent="1" source="OX6Z1GExO-TKb89o3v1y-76" target="OX6Z1GExO-TKb89o3v1y-89">
          <mxGeometry relative="1" as="geometry" />
        </mxCell>
        <mxCell id="OX6Z1GExO-TKb89o3v1y-132" style="edgeStyle=orthogonalEdgeStyle;rounded=0;orthogonalLoop=1;jettySize=auto;html=1;exitX=1;exitY=0.5;exitDx=0;exitDy=0;entryX=0.5;entryY=0;entryDx=0;entryDy=0;" edge="1" parent="1" source="OX6Z1GExO-TKb89o3v1y-76" target="OX6Z1GExO-TKb89o3v1y-90">
          <mxGeometry relative="1" as="geometry" />
        </mxCell>
        <mxCell id="OX6Z1GExO-TKb89o3v1y-76" value="&lt;font face=&quot;calibri, sans-serif&quot;&gt;&lt;span style=&quot;font-size: 14.6667px;&quot;&gt;cc5api.ektaco.ee&lt;/span&gt;&lt;/font&gt;&lt;br&gt;&lt;div&gt;&lt;font face=&quot;calibri, sans-serif&quot;&gt;&lt;span style=&quot;font-size: 14.6667px;&quot;&gt;On-Premises host&lt;/span&gt;&lt;/font&gt;&lt;/div&gt;" style="aspect=fixed;perimeter=ellipsePerimeter;html=1;align=center;shadow=0;dashed=0;spacingTop=3;image;image=img/lib/active_directory/generic_server.svg;fontFamily=Times New Roman;" vertex="1" parent="1">
          <mxGeometry x="1502" y="-1390" width="58" height="103.57" as="geometry" />
        </mxCell>
        <mxCell id="OX6Z1GExO-TKb89o3v1y-89" value="IdentityConfDb" style="shape=datastore;whiteSpace=wrap;html=1;spacingTop=3;" vertex="1" parent="1">
          <mxGeometry x="1491" y="-1105.35" width="90" height="90" as="geometry" />
        </mxCell>
        <mxCell id="OX6Z1GExO-TKb89o3v1y-129" style="edgeStyle=orthogonalEdgeStyle;rounded=0;orthogonalLoop=1;jettySize=auto;html=1;exitX=0.5;exitY=1;exitDx=0;exitDy=0;entryX=0.5;entryY=0;entryDx=0;entryDy=0;" edge="1" parent="1" source="OX6Z1GExO-TKb89o3v1y-90" target="OX6Z1GExO-TKb89o3v1y-61">
          <mxGeometry relative="1" as="geometry" />
        </mxCell>
        <mxCell id="OX6Z1GExO-TKb89o3v1y-90" value="Cc5Api" style="shape=datastore;whiteSpace=wrap;html=1;spacingTop=3;" vertex="1" parent="1">
          <mxGeometry x="1611" y="-1105.35" width="90" height="90" as="geometry" />
        </mxCell>
        <mxCell id="OX6Z1GExO-TKb89o3v1y-91" value="IdentityDb" style="shape=datastore;whiteSpace=wrap;html=1;spacingTop=3;" vertex="1" parent="1">
          <mxGeometry x="1361" y="-1105.35" width="90" height="90" as="geometry" />
        </mxCell>
        <mxCell id="OX6Z1GExO-TKb89o3v1y-63" value="LIVE UAE" style="swimlane;container=0;" vertex="1" parent="1">
          <mxGeometry x="480" y="-780" width="200" height="1540" as="geometry" />
        </mxCell>
        <mxCell id="OX6Z1GExO-TKb89o3v1y-117" value="&lt;font face=&quot;calibri, sans-serif&quot; color=&quot;#000000&quot;&gt;&lt;span style=&quot;font-size: 14.6667px;&quot;&gt;CC5 Delivery&lt;/span&gt;&lt;/font&gt;&lt;div&gt;&lt;font face=&quot;calibri, sans-serif&quot; color=&quot;#000000&quot;&gt;&lt;span style=&quot;font-size: 14.6667px;&quot;&gt;API&lt;/span&gt;&lt;/font&gt;&lt;/div&gt;&lt;div&gt;&lt;font face=&quot;calibri, sans-serif&quot; color=&quot;#000000&quot;&gt;&lt;span style=&quot;font-size: 14.6667px;&quot;&gt;dubai_live_deliverect&lt;/span&gt;&lt;/font&gt;&lt;/div&gt;" style="aspect=fixed;perimeter=ellipsePerimeter;html=1;align=center;shadow=0;dashed=0;fontColor=#4277BB;labelBackgroundColor=#ffffff;fontSize=12;spacingTop=3;image;image=img/lib/ibm/management/api_management.svg;" vertex="1" parent="OX6Z1GExO-TKb89o3v1y-63">
          <mxGeometry x="50" y="60" width="100" height="100" as="geometry" />
        </mxCell>
        <mxCell id="OX6Z1GExO-TKb89o3v1y-118" value="&lt;span style=&quot;font-size: 11.0pt ; font-family: &amp;quot;calibri&amp;quot; , sans-serif&quot;&gt;&lt;font color=&quot;#000000&quot;&gt;CC5 Office&lt;/font&gt;&lt;/span&gt;&lt;div&gt;&lt;span style=&quot;font-size: 11.0pt ; font-family: &amp;quot;calibri&amp;quot; , sans-serif&quot;&gt;&lt;font color=&quot;#000000&quot;&gt;API&lt;/font&gt;&lt;/span&gt;&lt;/div&gt;&lt;div&gt;&lt;span style=&quot;font-size: 11.0pt ; font-family: &amp;quot;calibri&amp;quot; , sans-serif&quot;&gt;&lt;font color=&quot;#000000&quot;&gt;dubai_live_cc5office&lt;/font&gt;&lt;/span&gt;&lt;/div&gt;" style="aspect=fixed;perimeter=ellipsePerimeter;html=1;align=center;shadow=0;dashed=0;fontColor=#4277BB;labelBackgroundColor=#ffffff;fontSize=12;spacingTop=3;image;image=img/lib/ibm/management/api_management.svg;" vertex="1" parent="OX6Z1GExO-TKb89o3v1y-63">
          <mxGeometry x="50" y="250" width="100" height="100" as="geometry" />
        </mxCell>
        <mxCell id="OX6Z1GExO-TKb89o3v1y-119" value="&lt;font face=&quot;calibri, sans-serif&quot; color=&quot;#000000&quot;&gt;&lt;span style=&quot;font-size: 14.6667px;&quot;&gt;CC5 Partners&lt;/span&gt;&lt;/font&gt;&lt;br&gt;&lt;div&gt;&lt;span style=&quot;font-size: 11.0pt ; font-family: &amp;quot;calibri&amp;quot; , sans-serif&quot;&gt;&lt;font color=&quot;#000000&quot;&gt;API&lt;/font&gt;&lt;/span&gt;&lt;/div&gt;&lt;div&gt;&lt;span style=&quot;font-size: 11.0pt ; font-family: &amp;quot;calibri&amp;quot; , sans-serif&quot;&gt;&lt;font color=&quot;#000000&quot;&gt;dubai_live_cc5partners&lt;/font&gt;&lt;/span&gt;&lt;/div&gt;" style="aspect=fixed;perimeter=ellipsePerimeter;html=1;align=center;shadow=0;dashed=0;fontColor=#4277BB;labelBackgroundColor=#ffffff;fontSize=12;spacingTop=3;image;image=img/lib/ibm/management/api_management.svg;" vertex="1" parent="OX6Z1GExO-TKb89o3v1y-63">
          <mxGeometry x="50" y="430" width="100" height="100" as="geometry" />
        </mxCell>
        <mxCell id="OX6Z1GExO-TKb89o3v1y-120" value="&lt;span style=&quot;font-size: 11.0pt ; font-family: &amp;quot;calibri&amp;quot; , sans-serif&quot;&gt;&lt;font color=&quot;#000000&quot;&gt;CC5 Retail&lt;br&gt;API&lt;/font&gt;&lt;/span&gt;&lt;div&gt;&lt;span style=&quot;font-size: 11.0pt ; font-family: &amp;quot;calibri&amp;quot; , sans-serif&quot;&gt;&lt;font color=&quot;#000000&quot;&gt;dubai_live_retail&lt;/font&gt;&lt;/span&gt;&lt;/div&gt;" style="aspect=fixed;perimeter=ellipsePerimeter;html=1;align=center;shadow=0;dashed=0;fontColor=#4277BB;labelBackgroundColor=#ffffff;fontSize=12;spacingTop=3;image;image=img/lib/ibm/management/api_management.svg;" vertex="1" parent="OX6Z1GExO-TKb89o3v1y-63">
          <mxGeometry x="50" y="800" width="100" height="100" as="geometry" />
        </mxCell>
        <mxCell id="OX6Z1GExO-TKb89o3v1y-122" value="&lt;span style=&quot;font-size: 11.0pt ; font-family: &amp;quot;calibri&amp;quot; , sans-serif&quot;&gt;&lt;font color=&quot;#000000&quot;&gt;CSV Importer&lt;br&gt;API&lt;/font&gt;&lt;/span&gt;&lt;div&gt;&lt;span style=&quot;font-size: 11.0pt ; font-family: &amp;quot;calibri&amp;quot; , sans-serif&quot;&gt;&lt;font color=&quot;#000000&quot;&gt;dubai_live_csv_importer&lt;/font&gt;&lt;/span&gt;&lt;/div&gt;" style="aspect=fixed;perimeter=ellipsePerimeter;html=1;align=center;shadow=0;dashed=0;fontColor=#4277BB;labelBackgroundColor=#ffffff;fontSize=12;spacingTop=3;image;image=img/lib/ibm/management/api_management.svg;" vertex="1" parent="OX6Z1GExO-TKb89o3v1y-63">
          <mxGeometry x="50" y="1170" width="100" height="100" as="geometry" />
        </mxCell>
        <mxCell id="OX6Z1GExO-TKb89o3v1y-124" value="&lt;span style=&quot;font-size: 11.0pt ; font-family: &amp;quot;calibri&amp;quot; , sans-serif&quot;&gt;&lt;font color=&quot;#000000&quot;&gt;Wallet Passes&lt;br&gt;API&lt;/font&gt;&lt;/span&gt;&lt;div&gt;&lt;span style=&quot;font-size: 11.0pt ; font-family: &amp;quot;calibri&amp;quot; , sans-serif&quot;&gt;&lt;font color=&quot;#000000&quot;&gt;dubai_live_walletapi&lt;/font&gt;&lt;/span&gt;&lt;/div&gt;" style="aspect=fixed;perimeter=ellipsePerimeter;html=1;align=center;shadow=0;dashed=0;fontColor=#4277BB;labelBackgroundColor=#ffffff;fontSize=12;spacingTop=3;image;image=img/lib/ibm/management/api_management.svg;" vertex="1" parent="OX6Z1GExO-TKb89o3v1y-63">
          <mxGeometry x="50" y="1350" width="100" height="100" as="geometry" />
        </mxCell>
        <mxCell id="OX6Z1GExO-TKb89o3v1y-125" value="&lt;span style=&quot;font-size: 11.0pt ; font-family: &amp;quot;calibri&amp;quot; , sans-serif&quot;&gt;&lt;font color=&quot;#000000&quot;&gt;CC5 Pos&lt;br&gt;API&lt;/font&gt;&lt;/span&gt;&lt;div&gt;&lt;span style=&quot;font-size: 11.0pt ; font-family: &amp;quot;calibri&amp;quot; , sans-serif&quot;&gt;&lt;font color=&quot;#000000&quot;&gt;dubai_live_cc5pos&lt;/font&gt;&lt;/span&gt;&lt;/div&gt;" style="aspect=fixed;perimeter=ellipsePerimeter;html=1;align=center;shadow=0;dashed=0;fontColor=#4277BB;labelBackgroundColor=#ffffff;fontSize=12;spacingTop=3;image;image=img/lib/ibm/management/api_management.svg;" vertex="1" parent="OX6Z1GExO-TKb89o3v1y-63">
          <mxGeometry x="50" y="620" width="100" height="100" as="geometry" />
        </mxCell>
        <mxCell id="OX6Z1GExO-TKb89o3v1y-126" value="&lt;span style=&quot;font-size: 11.0pt ; font-family: &amp;quot;calibri&amp;quot; , sans-serif&quot;&gt;&lt;font color=&quot;#000000&quot;&gt;CC Inventory&lt;br&gt;API&lt;/font&gt;&lt;/span&gt;&lt;div&gt;&lt;span style=&quot;font-size: 11.0pt ; font-family: &amp;quot;calibri&amp;quot; , sans-serif&quot;&gt;&lt;font color=&quot;#000000&quot;&gt;dubai_live_ccinventoryapi&lt;/font&gt;&lt;/span&gt;&lt;/div&gt;" style="aspect=fixed;perimeter=ellipsePerimeter;html=1;align=center;shadow=0;dashed=0;fontColor=#4277BB;labelBackgroundColor=#ffffff;fontSize=12;spacingTop=3;image;image=img/lib/ibm/management/api_management.svg;" vertex="1" parent="OX6Z1GExO-TKb89o3v1y-63">
          <mxGeometry x="50" y="990" width="100" height="100" as="geometry" />
        </mxCell>
        <mxCell id="OX6Z1GExO-TKb89o3v1y-133" value="&lt;span style=&quot;font-size: 11.0pt ; font-family: &amp;quot;calibri&amp;quot; , sans-serif&quot;&gt;compucash5.ae&lt;br&gt;UAE host&lt;br&gt;Alibaba&lt;/span&gt;" style="aspect=fixed;perimeter=ellipsePerimeter;html=1;align=center;shadow=0;dashed=0;spacingTop=3;image;image=img/lib/active_directory/generic_server.svg;fontFamily=Times New Roman;" vertex="1" parent="1">
          <mxGeometry x="590" y="-1390" width="52" height="92.86" as="geometry" />
        </mxCell>
      </root>
    </mxGraphModel>
  </diagram>
</mxfile>
